Comme-Medium.ufo
<glyph name="quotedbl" format="1">
  <advance width="737"/>
  <unicode hex="0022"/>
  <outline>
    <contour>
      <point x="173" y="978" type="line"/>
      <point x="276" y="978" type="line"/>
      <point x="316" y="1535" type="line"/>
      <point x="103" y="1535" type="line"/>
    </contour>
    <contour>
      <point x="493" y="978" type="line"/>
      <point x="597" y="978" type="line"/>
      <point x="637" y="1535" type="line"/>
      <point x="424" y="1535" type="line"/>
    </contour>
  </outline>
</glyph>
<glyph name="numbersign" format="1">
  <advance width="1149"/>
  <unicode hex="0023"/>
  <outline>
    <contour>
      <point x="165" y="-14" type="line"/>
      <point x="288" y="-14" type="line"/>
      <point x="377" y="442" type="line"/>
      <point x="657" y="442" type="line"/>
      <point x="568" y="-14" type="line"/>
      <point x="691" y="-14" type="line"/>
      <point x="780" y="442" type="line"/>
      <point x="992" y="442" type="line"/>
      <point x="1007" y="546" type="line"/>
      <point x="801" y="546" type="line"/>
      <point x="885" y="979" type="line"/>
      <point x="1082" y="979" type="line"/>
      <point x="1099" y="1083" type="line"/>
      <point x="905" y="1083" type="line"/>
      <point x="998" y="1532" type="line"/>
      <point x="876" y="1532" type="line"/>
      <point x="783" y="1083" type="line"/>
      <point x="503" y="1083" type="line"/>
      <point x="596" y="1532" type="line"/>
      <point x="471" y="1532" type="line"/>
      <point x="378" y="1083" type="line"/>
      <point x="178" y="1083" type="line"/>
      <point x="164" y="979" type="line"/>
      <point x="359" y="979" type="line"/>
      <point x="274" y="546" type="line"/>
      <point x="79" y="546" type="line"/>
      <point x="65" y="442" type="line"/>
      <point x="254" y="442" type="line"/>
    </contour>
    <contour>
      <point x="397" y="546" type="line"/>
      <point x="483" y="979" type="line"/>
      <point x="762" y="979" type="line"/>
      <point x="677" y="546" type="line"/>
    </contour>
  </outline>
</glyph>
<glyph name="ampersand" format="1">
  <advance width="1420"/>
  <unicode hex="0026"/>
  <outline>
    <contour>
      <point x="1199" y="-25" type="line"/>
      <point x="1314" y="87" type="line"/>
      <point x="632" y="778" type="line"/>
      <point x="802" y="870"/>
      <point x="974" y="983"/>
      <point x="974" y="1181" type="curve" smooth="yes"/>
      <point x="974" y="1391"/>
      <point x="808" y="1492"/>
      <point x="612" y="1493" type="curve" smooth="yes"/>
      <point x="396" y="1495"/>
      <point x="226" y="1369"/>
      <point x="226" y="1164" type="curve" smooth="yes"/>
      <point x="226" y="1038"/>
      <point x="288" y="921"/>
      <point x="398" y="807" type="curve"/>
      <point x="214" y="709"/>
      <point x="82" y="600"/>
      <point x="95" y="373" type="curve" smooth="yes"/>
      <point x="106" y="137"/>
      <point x="290" y="-19"/>
      <point x="563" y="-19" type="curve" smooth="yes"/>
      <point x="1025" y="-19"/>
      <point x="1221" y="427"/>
      <point x="1356" y="682" type="curve"/>
      <point x="1231" y="766" type="line"/>
      <point x="987" y="297"/>
      <point x="819" y="137"/>
      <point x="583" y="137" type="curve" smooth="yes"/>
      <point x="404" y="137"/>
      <point x="292" y="232"/>
      <point x="286" y="385" type="curve" smooth="yes"/>
      <point x="276" y="539"/>
      <point x="371" y="629"/>
      <point x="493" y="694" type="curve"/>
    </contour>
    <contour>
      <point x="541" y="882" type="curve"/>
      <point x="436" y="1006"/>
      <point x="403" y="1080"/>
      <point x="403" y="1173" type="curve" smooth="yes"/>
      <point x="403" y="1285"/>
      <point x="495" y="1353"/>
      <point x="615" y="1351" type="curve" smooth="yes"/>
      <point x="731" y="1349"/>
      <point x="796" y="1288"/>
      <point x="796" y="1176" type="curve" smooth="yes"/>
      <point x="796" y="1039"/>
      <point x="672" y="951"/>
    </contour>
  </outline>
</glyph>
<glyph name="quotesingle" format="1">
  <advance width="460"/>
  <unicode hex="0027"/>
  <outline>
    <contour>
      <point x="170" y="946" type="line"/>
      <point x="285" y="946" type="line"/>
      <point x="317" y="1514" type="line"/>
      <point x="111" y="1514" type="line"/>
    </contour>
  </outline>
</glyph>
<glyph name="parenright" format="1">
  <advance width="797"/>
  <unicode hex="0029"/>
  <outline>
    <contour>
      <point x="159" y="-249" type="line"/>
      <point x="327" y="-249" type="line"/>
      <point x="489" y="-1"/>
      <point x="591" y="337"/>
      <point x="591" y="671" type="curve" smooth="yes"/>
      <point x="591" y="1006"/>
      <point x="489" y="1343"/>
      <point x="327" y="1592" type="curve"/>
      <point x="159" y="1592" type="line"/>
      <point x="159" y="1556" type="line"/>
      <point x="323" y="1302"/>
      <point x="412" y="1019"/>
      <point x="412" y="671" type="curve" smooth="yes"/>
      <point x="412" y="324"/>
      <point x="323" y="38"/>
      <point x="159" y="-216" type="curve"/>
    </contour>
  </outline>
</glyph>
<glyph name="asterisk" format="1">
  <advance width="968"/>
  <unicode hex="002A"/>
  <outline>
    <contour>
      <point x="307" y="565" type="line"/>
      <point x="483" y="901" type="line"/>
      <point x="671" y="564" type="line"/>
      <point x="713" y="591"/>
      <point x="783" y="633"/>
      <point x="826" y="660" type="curve"/>
      <point x="756" y="749"/>
      <point x="628" y="921"/>
      <point x="588" y="973" type="curve"/>
      <point x="934" y="1050" type="line"/>
      <point x="884" y="1227" type="line"/>
      <point x="545" y="1085" type="line"/>
      <point x="580" y="1474" type="line"/>
      <point x="394" y="1474" type="line"/>
      <point x="428" y="1085" type="line"/>
      <point x="92" y="1227" type="line"/>
      <point x="41" y="1050" type="line"/>
      <point x="383" y="973" type="line"/>
      <point x="149" y="660" type="line"/>
    </contour>
  </outline>
</glyph>
<glyph name="slash" format="1">
  <advance width="981"/>
  <unicode hex="002F"/>
  <outline>
    <contour>
      <point x="113" y="-153" type="line"/>
      <point x="278" y="-153" type="line"/>
      <point x="902" y="1560" type="line"/>
      <point x="734" y="1560" type="line"/>
    </contour>
  </outline>
</glyph>
<glyph name="zero" format="1">
  <advance width="1285"/>
  <unicode hex="0030"/>
  <outline>
    <contour>
      <point x="646" y="159" type="curve" smooth="yes"/>
      <point x="464" y="159"/>
      <point x="351" y="324"/>
      <point x="351" y="714" type="curve" smooth="yes"/>
      <point x="351" y="1089"/>
      <point x="465" y="1297"/>
      <point x="646" y="1297" type="curve" smooth="yes"/>
      <point x="828" y="1297"/>
      <point x="934" y="1110"/>
      <point x="934" y="715" type="curve" smooth="yes"/>
      <point x="934" y="324"/>
      <point x="828" y="159"/>
    </contour>
    <contour>
      <point x="646" y="-20" type="curve" smooth="yes"/>
      <point x="999" y="-20"/>
      <point x="1164" y="262"/>
      <point x="1164" y="710" type="curve" smooth="yes"/>
      <point x="1164" y="1175"/>
      <point x="987" y="1476"/>
      <point x="646" y="1476" type="curve" smooth="yes"/>
      <point x="305" y="1476"/>
      <point x="121" y="1174"/>
      <point x="121" y="710" type="curve" smooth="yes"/>
      <point x="121" y="262"/>
      <point x="293" y="-20"/>
    </contour>
  </outline>
</glyph>
<glyph name="one" format="1">
  <advance width="1285"/>
  <unicode hex="0031"/>
  <outline>
    <contour>
      <point x="197" y="0" type="line"/>
      <point x="1153" y="0" type="line"/>
      <point x="1153" y="159" type="line"/>
      <point x="810" y="159" type="line"/>
      <point x="810" y="1456" type="line"/>
      <point x="608" y="1456" type="line"/>
      <point x="524" y="1396"/>
      <point x="304" y="1315"/>
      <point x="206" y="1291" type="curve"/>
      <point x="206" y="1127" type="line"/>
      <point x="289" y="1138"/>
      <point x="471" y="1198"/>
      <point x="582" y="1256" type="curve"/>
      <point x="582" y="159" type="line"/>
      <point x="197" y="159" type="line"/>
    </contour>
  </outline>
</glyph>
<glyph name="three" format="1">
  <advance width="1242"/>
  <unicode hex="0033"/>
  <outline>
    <contour>
      <point x="606" y="-20" type="curve" smooth="yes"/>
      <point x="899" y="-20"/>
      <point x="1089" y="150"/>
      <point x="1089" y="391" type="curve" smooth="yes"/>
      <point x="1089" y="578"/>
      <point x="989" y="731"/>
      <point x="774" y="767" type="curve"/>
      <point x="971" y="809"/>
      <point x="1048" y="938"/>
      <point x="1048" y="1097" type="curve" smooth="yes"/>
      <point x="1047" y="1335"/>
      <point x="880" y="1476"/>
      <point x="608" y="1476" type="curve" smooth="yes"/>
      <point x="450" y="1476"/>
      <point x="243" y="1418"/>
      <point x="149" y="1236" type="curve"/>
      <point x="266" y="1132" type="line"/>
      <point x="287" y="1131" type="line"/>
      <point x="366" y="1251"/>
      <point x="470" y="1297"/>
      <point x="589" y="1297" type="curve" smooth="yes"/>
      <point x="756" y="1297"/>
      <point x="831" y="1217"/>
      <point x="832" y="1084" type="curve" smooth="yes"/>
      <point x="832" y="868"/>
      <point x="652" y="837"/>
      <point x="481" y="837" type="curve" smooth="yes"/>
      <point x="400" y="837" type="line"/>
      <point x="424" y="674" type="line"/>
      <point x="481" y="674" type="line" smooth="yes"/>
      <point x="728" y="674"/>
      <point x="866" y="616"/>
      <point x="866" y="399" type="curve" smooth="yes"/>
      <point x="866" y="237"/>
      <point x="753" y="158"/>
      <point x="598" y="158" type="curve" smooth="yes"/>
      <point x="488" y="158"/>
      <point x="356" y="199"/>
      <point x="281" y="313" type="curve"/>
      <point x="265" y="313" type="line"/>
      <point x="151" y="206" type="line"/>
      <point x="235" y="59"/>
      <point x="421" y="-20"/>
    </contour>
  </outline>
</glyph>
<glyph name="four" format="1">
  <advance width="1285"/>
  <unicode hex="0034"/>
  <outline>
    <contour>
      <point x="761" y="0" type="line"/>
      <point x="985" y="0" type="line"/>
      <point x="985" y="362" type="line"/>
      <point x="1154" y="362" type="line"/>
      <point x="1167" y="527" type="line"/>
      <point x="985" y="527" type="line"/>
      <point x="985" y="1456" type="line"/>
      <point x="735" y="1456" type="line"/>
      <point x="125" y="523" type="line"/>
      <point x="166" y="362" type="line"/>
      <point x="761" y="362" type="line"/>
    </contour>
    <contour>
      <point x="327" y="525" type="line"/>
      <point x="761" y="1209" type="line"/>
      <point x="761" y="525" type="line"/>
    </contour>
  </outline>
</glyph>
<glyph name="five" format="1">
  <advance width="1285"/>
  <unicode hex="0035"/>
  <outline>
    <contour>
      <point x="641" y="-20" type="curve" smooth="yes"/>
      <point x="983" y="-20"/>
      <point x="1152" y="222"/>
      <point x="1152" y="475" type="curve" smooth="yes"/>
      <point x="1152" y="708"/>
      <point x="1005" y="941"/>
      <point x="705" y="941" type="curve" smooth="yes"/>
      <point x="595" y="941"/>
      <point x="514" y="906"/>
      <point x="447" y="846" type="curve"/>
      <point x="493" y="1291" type="line"/>
      <point x="1045" y="1291" type="line"/>
      <point x="1067" y="1456" type="line"/>
      <point x="299" y="1456" type="line"/>
      <point x="249" y="686" type="line"/>
      <point x="420" y="658" type="line"/>
      <point x="474" y="740"/>
      <point x="562" y="782"/>
      <point x="669" y="782" type="curve" smooth="yes"/>
      <point x="838" y="782"/>
      <point x="930" y="633"/>
      <point x="930" y="478" type="curve" smooth="yes"/>
      <point x="930" y="310"/>
      <point x="834" y="159"/>
      <point x="631" y="159" type="curve" smooth="yes"/>
      <point x="493" y="159"/>
      <point x="389" y="211"/>
      <point x="313" y="320" type="curve"/>
      <point x="297" y="320" type="line"/>
      <point x="178" y="199" type="line"/>
      <point x="247" y="88"/>
      <point x="407" y="-20"/>
    </contour>
  </outline>
</glyph>
<glyph name="eight" format="1">
  <advance width="1285"/>
  <unicode hex="0038"/>
  <outline>
    <contour>
      <point x="643" y="-20" type="curve" smooth="yes"/>
      <point x="926" y="-20"/>
      <point x="1136" y="111"/>
      <point x="1136" y="371" type="curve" smooth="yes"/>
      <point x="1136" y="563"/>
      <point x="1026" y="710"/>
      <point x="854" y="769" type="curve"/>
      <point x="1005" y="826"/>
      <point x="1106" y="935"/>
      <point x="1106" y="1114" type="curve" smooth="yes"/>
      <point x="1106" y="1348"/>
      <point x="912" y="1476"/>
      <point x="643" y="1476" type="curve" smooth="yes"/>
      <point x="375" y="1476"/>
      <point x="177" y="1348"/>
      <point x="177" y="1114" type="curve" smooth="yes"/>
      <point x="177" y="934"/>
      <point x="288" y="818"/>
      <point x="437" y="767" type="curve"/>
      <point x="256" y="703"/>
      <point x="148" y="573"/>
      <point x="148" y="371" type="curve" smooth="yes"/>
      <point x="148" y="111"/>
      <point x="362" y="-20"/>
    </contour>
    <contour>
      <point x="643" y="138" type="curve" smooth="yes"/>
      <point x="461" y="138"/>
      <point x="366" y="222"/>
      <point x="366" y="386" type="curve" smooth="yes"/>
      <point x="366" y="554"/>
      <point x="485" y="656"/>
      <point x="643" y="695" type="curve"/>
      <point x="802" y="656"/>
      <point x="917" y="550"/>
      <point x="917" y="387" type="curve" smooth="yes"/>
      <point x="917" y="218"/>
      <point x="831" y="138"/>
    </contour>
    <contour>
      <point x="643" y="824" type="curve"/>
      <point x="480" y="866"/>
      <point x="392" y="966"/>
      <point x="392" y="1112" type="curve" smooth="yes"/>
      <point x="392" y="1244"/>
      <point x="493" y="1323"/>
      <point x="643" y="1323" type="curve" smooth="yes"/>
      <point x="794" y="1323"/>
      <point x="891" y="1245"/>
      <point x="891" y="1112" type="curve" smooth="yes"/>
      <point x="891" y="966"/>
      <point x="808" y="866"/>
    </contour>
  </outline>
</glyph>
<glyph name="nine" format="1">
  <advance width="1284"/>
  <unicode hex="0039"/>
  <outline>
    <contour>
      <point x="347" y="0" type="line"/>
      <point x="583" y="0" type="line"/>
      <point x="954" y="488" type="line" smooth="yes"/>
      <point x="1082" y="655"/>
      <point x="1168" y="797"/>
      <point x="1168" y="1003" type="curve" smooth="yes"/>
      <point x="1168" y="1258"/>
      <point x="987" y="1476"/>
      <point x="671" y="1476" type="curve" smooth="yes"/>
      <point x="368" y="1476"/>
      <point x="169" y="1278"/>
      <point x="169" y="1014" type="curve" smooth="yes"/>
      <point x="169" y="733"/>
      <point x="368" y="563"/>
      <point x="598" y="563" type="curve" smooth="yes"/>
      <point x="720" y="563"/>
      <point x="849" y="621"/>
      <point x="913" y="709" type="curve"/>
      <point x="898" y="727" type="line"/>
      <point x="697" y="468" type="line"/>
      <point x="347" y="24" type="line"/>
    </contour>
    <contour>
      <point x="665" y="713" type="curve" smooth="yes"/>
      <point x="482" y="710"/>
      <point x="385" y="840"/>
      <point x="385" y="1013" type="curve" smooth="yes"/>
      <point x="385" y="1177"/>
      <point x="491" y="1312"/>
      <point x="671" y="1312" type="curve" smooth="yes"/>
      <point x="851" y="1312"/>
      <point x="953" y="1176"/>
      <point x="953" y="1013" type="curve" smooth="yes"/>
      <point x="953" y="794"/>
      <point x="791" y="716"/>
    </contour>
  </outline>
</glyph>
<glyph name="colon" format="1">
  <advance width="668"/>
  <unicode hex="003A"/>
  <outline>
    <contour>
      <point x="333" y="-9" type="curve" smooth="yes"/>
      <point x="419" y="-9"/>
      <point x="466" y="50"/>
      <point x="466" y="124" type="curve" smooth="yes"/>
      <point x="466" y="199"/>
      <point x="419" y="260"/>
      <point x="333" y="260" type="curve" smooth="yes"/>
      <point x="247" y="260"/>
      <point x="198" y="199"/>
      <point x="198" y="124" type="curve" smooth="yes"/>
      <point x="198" y="49"/>
      <point x="248" y="-9"/>
    </contour>
    <contour>
      <point x="333" y="823" type="curve" smooth="yes"/>
      <point x="419" y="823"/>
      <point x="466" y="882"/>
      <point x="466" y="957" type="curve" smooth="yes"/>
      <point x="466" y="1032"/>
      <point x="419" y="1092"/>
      <point x="333" y="1092" type="curve" smooth="yes"/>
      <point x="247" y="1092"/>
      <point x="198" y="1032"/>
      <point x="198" y="957" type="curve" smooth="yes"/>
      <point x="198" y="882"/>
      <point x="248" y="823"/>
    </contour>
  </outline>
</glyph>
<glyph name="less" format="1">
  <advance width="1107"/>
  <unicode hex="003C"/>
  <outline>
    <contour>
      <point x="1007" y="150" type="line"/>
      <point x="1007" y="325" type="line"/>
      <point x="301" y="665" type="line"/>
      <point x="1007" y="1031" type="line"/>
      <point x="1007" y="1203" type="line"/>
      <point x="73" y="711" type="line"/>
      <point x="73" y="609" type="line"/>
    </contour>
  </outline>
</glyph>
<glyph name="equal" format="1">
  <advance width="1110"/>
  <unicode hex="003D"/>
  <outline>
    <contour>
      <point x="121" y="994" type="line"/>
      <point x="121" y="827" type="line"/>
      <point x="988" y="827" type="line"/>
      <point x="988" y="994" type="line"/>
    </contour>
    <contour>
      <point x="121" y="598" type="line"/>
      <point x="121" y="431" type="line"/>
      <point x="988" y="431" type="line"/>
      <point x="988" y="598" type="line"/>
    </contour>
  </outline>
</glyph>
<glyph name="A" format="1">
  <advance width="1445"/>
  <unicode hex="0041"/>
  <outline>
    <contour>
      <point x="721" y="1456" type="move" name="top"/>
    </contour>
    <contour>
      <point x="1257" y="0" type="move" name="ogonek"/>
    </contour>
    <contour>
      <point x="723" y="0" type="move" name="bot"/>
    </contour>
    <contour>
      <point x="62" y="0" type="line"/>
      <point x="293" y="0" type="line"/>
      <point x="449" y="434" type="line"/>
      <point x="993" y="434" type="line"/>
      <point x="1151" y="0" type="line"/>
      <point x="1384" y="0" type="line"/>
      <point x="849" y="1456" type="line"/>
      <point x="593" y="1456" type="line"/>
    </contour>
    <contour>
      <point x="499" y="589" type="line"/>
      <point x="722" y="1243" type="line"/>
      <point x="944" y="589" type="line"/>
    </contour>
  </outline>
</glyph>
<glyph name="B" format="1">
  <advance width="1387"/>
  <unicode hex="0042"/>
  <outline>
    <contour>
      <point x="667" y="1456" type="move" name="top"/>
    </contour>
    <contour>
      <point x="568" y="-7" type="curve" smooth="yes"/>
      <point x="1081" y="-7"/>
      <point x="1265" y="127"/>
      <point x="1265" y="433" type="curve" smooth="yes"/>
      <point x="1265" y="643"/>
      <point x="1153" y="768"/>
      <point x="870" y="804" type="curve"/>
      <point x="870" y="766" type="line"/>
      <point x="1118" y="813"/>
      <point x="1216" y="939"/>
      <point x="1216" y="1095" type="curve" smooth="yes"/>
      <point x="1216" y="1298"/>
      <point x="1121" y="1465"/>
      <point x="622" y="1465" type="curve" smooth="yes"/>
      <point x="504" y="1465"/>
      <point x="363" y="1456"/>
      <point x="197" y="1438" type="curve"/>
      <point x="197" y="11" type="line"/>
      <point x="336" y="-1"/>
      <point x="460" y="-7"/>
    </contour>
    <contour>
      <point x="428" y="121" type="line"/>
      <point x="428" y="753" type="line"/>
      <point x="373" y="704" type="line"/>
      <point x="666" y="704" type="line" smooth="yes"/>
      <point x="921" y="704"/>
      <point x="1036" y="634"/>
      <point x="1036" y="434" type="curve" smooth="yes"/>
      <point x="1036" y="269"/>
      <point x="990" y="158"/>
      <point x="601" y="158" type="curve" smooth="yes"/>
      <point x="531" y="158"/>
      <point x="450" y="162"/>
      <point x="371" y="169" type="curve"/>
    </contour>
    <contour>
      <point x="428" y="814" type="line"/>
      <point x="428" y="1345" type="line"/>
      <point x="362" y="1291" type="line"/>
      <point x="460" y="1303"/>
      <point x="556" y="1308"/>
      <point x="635" y="1308" type="curve" smooth="yes"/>
      <point x="905" y="1308"/>
      <point x="993" y="1238"/>
      <point x="993" y="1077" type="curve" smooth="yes"/>
      <point x="993" y="896"/>
      <point x="850" y="856"/>
      <point x="676" y="856" type="curve" smooth="yes"/>
      <point x="374" y="856" type="line"/>
    </contour>
  </outline>
</glyph>
<glyph name="C" format="1">
  <advance width="1466"/>
  <unicode hex="0043"/>
  <outline>
    <contour>
      <point x="797" y="1456" type="move" name="top"/>
    </contour>
    <contour>
      <point x="806" y="1" type="move" name="bot"/>
    </contour>
    <contour>
      <point x="811" y="-20" type="curve" smooth="yes"/>
      <point x="1085" y="-20"/>
      <point x="1319" y="126"/>
      <point x="1374" y="370" type="curve"/>
      <point x="1205" y="426" type="line"/>
      <point x="1188" y="426" type="line"/>
      <point x="1152" y="270"/>
      <point x="1004" y="157"/>
      <point x="827" y="157" type="curve" smooth="yes"/>
      <point x="558" y="157"/>
      <point x="385" y="348"/>
      <point x="385" y="730" type="curve" smooth="yes"/>
      <point x="385" y="1109"/>
      <point x="557" y="1298"/>
      <point x="829" y="1298" type="curve" smooth="yes"/>
      <point x="1006" y="1298"/>
      <point x="1151" y="1187"/>
      <point x="1188" y="1026" type="curve"/>
      <point x="1207" y="1026" type="line"/>
      <point x="1374" y="1082" type="line"/>
      <point x="1323" y="1323"/>
      <point x="1089" y="1478"/>
      <point x="813" y="1478" type="curve" smooth="yes"/>
      <point x="414" y="1478"/>
      <point x="144" y="1205"/>
      <point x="144" y="730" type="curve" smooth="yes"/>
      <point x="144" y="249"/>
      <point x="414" y="-20"/>
    </contour>
  </outline>
</glyph>
<glyph name="D" format="1">
  <advance width="1511"/>
  <unicode hex="0044"/>
  <outline>
    <contour>
      <point x="756" y="1456" type="move" name="top"/>
    </contour>
    <contour>
      <point x="777" y="-1" type="move" name="bot"/>
    </contour>
    <contour>
      <point x="319" y="763" type="move" name="mid"/>
    </contour>
    <contour>
      <point x="197" y="10" type="line"/>
      <point x="1089" y="-97"/>
      <point x="1366" y="233"/>
      <point x="1366" y="748" type="curve" smooth="yes"/>
      <point x="1366" y="1272"/>
      <point x="1139" y="1552"/>
      <point x="197" y="1438" type="curve"/>
    </contour>
    <contour>
      <point x="357" y="1285" type="line"/>
      <point x="1016" y="1371"/>
      <point x="1137" y="1132"/>
      <point x="1137" y="743" type="curve" smooth="yes"/>
      <point x="1137" y="348"/>
      <point x="987" y="87"/>
      <point x="357" y="167" type="curve"/>
      <point x="428" y="98" type="line"/>
      <point x="428" y="1348" type="line"/>
    </contour>
  </outline>
</glyph>
<glyph name="G" format="1">
  <advance width="1502"/>
  <unicode hex="0047"/>
  <outline>
    <contour>
      <point x="807" y="1456" type="move" name="top"/>
    </contour>
    <contour>
      <point x="796" y="1" type="move" name="bot"/>
    </contour>
    <contour>
      <point x="827" y="-20" type="curve" smooth="yes"/>
      <point x="1037" y="-20"/>
      <point x="1211" y="18"/>
      <point x="1356" y="75" type="curve"/>
      <point x="1356" y="775" type="line"/>
      <point x="837" y="775" type="line"/>
      <point x="828" y="628" type="line"/>
      <point x="1151" y="606" type="line"/>
      <point x="1151" y="193" type="line"/>
      <point x="1093" y="177"/>
      <point x="995" y="155"/>
      <point x="866" y="155" type="curve" smooth="yes"/>
      <point x="532" y="155"/>
      <point x="386" y="360"/>
      <point x="386" y="735" type="curve" smooth="yes"/>
      <point x="386" y="1082"/>
      <point x="556" y="1301"/>
      <point x="869" y="1301" type="curve" smooth="yes"/>
      <point x="1045" y="1301"/>
      <point x="1165" y="1226"/>
      <point x="1230" y="1147" type="curve"/>
      <point x="1248" y="1147" type="line"/>
      <point x="1362" y="1267" type="line"/>
      <point x="1273" y="1387"/>
      <point x="1100" y="1476"/>
      <point x="858" y="1476" type="curve" smooth="yes"/>
      <point x="420" y="1476"/>
      <point x="144" y="1197"/>
      <point x="144" y="734" type="curve" smooth="yes"/>
      <point x="144" y="278"/>
      <point x="377" y="-20"/>
    </contour>
  </outline>
</glyph>
<glyph name="K" format="1">
  <advance width="1347"/>
  <unicode hex="004B"/>
  <outline>
    <contour>
      <point x="708" y="1456" type="move" name="top"/>
    </contour>
    <contour>
      <point x="710" y="0" type="move" name="bot"/>
    </contour>
    <contour>
      <point x="196" y="0" type="line"/>
      <point x="429" y="0" type="line"/>
      <point x="429" y="568" type="line"/>
      <point x="565" y="702" type="line"/>
      <point x="1096" y="0" type="line"/>
      <point x="1357" y="0" type="line"/>
      <point x="1357" y="16" type="line"/>
      <point x="736" y="828" type="line"/>
      <point x="1315" y="1438" type="line"/>
      <point x="1315" y="1456" type="line"/>
      <point x="1061" y="1456" type="line"/>
      <point x="429" y="789" type="line"/>
      <point x="429" y="1456" type="line"/>
      <point x="196" y="1456" type="line"/>
    </contour>
  </outline>
</glyph>
<glyph name="L" format="1">
  <advance width="1124"/>
  <unicode hex="004C"/>
  <outline>
    <contour>
      <point x="429" y="1456" type="move" name="top"/>
    </contour>
    <contour>
      <point x="619" y="0" type="move" name="bot"/>
    </contour>
    <contour>
      <point x="341" y="761" type="move" name="mid"/>
    </contour>
    <contour>
      <point x="197" y="1456" type="line"/>
      <point x="197" y="0" type="line"/>
      <point x="1109" y="0" type="line"/>
      <point x="1118" y="165" type="line"/>
      <point x="328" y="165" type="line"/>
      <point x="428" y="62" type="line"/>
      <point x="428" y="1456" type="line"/>
    </contour>
  </outline>
</glyph>
<glyph name="N" format="1">
  <advance width="1547"/>
  <unicode hex="004E"/>
  <outline>
    <contour>
      <point x="783" y="1456" type="move" name="top"/>
    </contour>
    <contour>
      <point x="775" y="0" type="move" name="bot"/>
    </contour>
    <contour>
      <point x="1139" y="1456" type="line"/>
      <point x="1139" y="715" type="line"/>
      <point x="1154" y="215" type="line"/>
      <point x="1201" y="226" type="line"/>
      <point x="424" y="1456" type="line"/>
      <point x="197" y="1456" type="line"/>
      <point x="197" y="0" type="line"/>
      <point x="412" y="0" type="line"/>
      <point x="412" y="698" type="line"/>
      <point x="391" y="1229" type="line"/>
      <point x="340" y="1219" type="line"/>
      <point x="1114" y="0" type="line"/>
      <point x="1350" y="0" type="line"/>
      <point x="1350" y="1456" type="line"/>
    </contour>
  </outline>
</glyph>
<glyph name="P" format="1">
  <advance width="1338"/>
  <unicode hex="0050"/>
  <outline>
    <contour>
      <point x="700" y="1456" type="move" name="top"/>
    </contour>
    <contour>
      <point x="196" y="0" type="line"/>
      <point x="429" y="0" type="line"/>
      <point x="429" y="607" type="line"/>
      <point x="501" y="601"/>
      <point x="567" y="599"/>
      <point x="627" y="599" type="curve" smooth="yes"/>
      <point x="1125" y="599"/>
      <point x="1249" y="784"/>
      <point x="1249" y="1051" type="curve" smooth="yes"/>
      <point x="1249" y="1328"/>
      <point x="1095" y="1464"/>
      <point x="612" y="1464" type="curve" smooth="yes"/>
      <point x="495" y="1464"/>
      <point x="357" y="1455"/>
      <point x="196" y="1438" type="curve"/>
    </contour>
    <contour>
      <point x="618" y="758" type="curve" smooth="yes"/>
      <point x="563" y="758"/>
      <point x="500" y="761"/>
      <point x="429" y="767" type="curve"/>
      <point x="429" y="1295" type="line"/>
      <point x="509" y="1302"/>
      <point x="578" y="1306"/>
      <point x="637" y="1306" type="curve" smooth="yes"/>
      <point x="967" y="1306"/>
      <point x="1032" y="1206"/>
      <point x="1032" y="1045" type="curve" smooth="yes"/>
      <point x="1032" y="871"/>
      <point x="966" y="758"/>
    </contour>
  </outline>
</glyph>
<glyph name="R" format="1">
  <advance width="1372"/>
  <unicode hex="0052"/>
  <outline>
    <contour>
      <point x="719" y="1456" type="move" name="top"/>
    </contour>
    <contour>
      <point x="723" y="0" type="move" name="bot"/>
    </contour>
    <contour>
      <point x="197" y="0" type="line"/>
      <point x="428" y="0" type="line"/>
      <point x="428" y="706" type="line"/>
      <point x="379" y="651" type="line"/>
      <point x="773" y="652" type="line"/>
      <point x="709" y="691" type="line"/>
      <point x="1060" y="0" type="line"/>
      <point x="1308" y="0" type="line"/>
      <point x="1308" y="19" type="line"/>
      <point x="942" y="715" type="line"/>
      <point x="916" y="669" type="line"/>
      <point x="1122" y="710"/>
      <point x="1266" y="823"/>
      <point x="1262" y="1073" type="curve" smooth="yes"/>
      <point x="1256" y="1445"/>
      <point x="992" y="1518"/>
      <point x="197" y="1438" type="curve"/>
    </contour>
    <contour>
      <point x="428" y="762" type="line"/>
      <point x="428" y="1337" type="line"/>
      <point x="369" y="1287" type="line"/>
      <point x="914" y="1341"/>
      <point x="1048" y="1278"/>
      <point x="1050" y="1068" type="curve" smooth="yes"/>
      <point x="1051" y="877"/>
      <point x="975" y="803"/>
      <point x="671" y="803" type="curve" smooth="yes"/>
      <point x="386" y="803" type="line"/>
    </contour>
  </outline>
</glyph>
<glyph name="S" format="1">
  <advance width="1230"/>
  <unicode hex="0053"/>
  <outline>
    <contour>
      <point x="616" y="1471" type="move" name="top"/>
    </contour>
    <contour>
      <point x="623" y="0" type="move" name="bot"/>
    </contour>
    <contour>
      <point x="606" y="-20" type="curve" smooth="yes"/>
      <point x="863" y="-20"/>
      <point x="1115" y="90"/>
      <point x="1115" y="390" type="curve" smooth="yes"/>
      <point x="1115" y="649"/>
      <point x="978" y="724"/>
      <point x="746" y="817" type="curve"/>
      <point x="548" y="897" type="line"/>
      <point x="395" y="960"/>
      <point x="347" y="995"/>
      <point x="347" y="1102" type="curve" smooth="yes"/>
      <point x="347" y="1254"/>
      <point x="472" y="1304"/>
      <point x="620" y="1304" type="curve" smooth="yes"/>
      <point x="758" y="1304"/>
      <point x="875" y="1254"/>
      <point x="945" y="1162" type="curve"/>
      <point x="962" y="1162" type="line"/>
      <point x="1090" y="1269" type="line"/>
      <point x="1001" y="1391"/>
      <point x="834" y="1476"/>
      <point x="621" y="1476" type="curve" smooth="yes"/>
      <point x="357" y="1476"/>
      <point x="115" y="1385"/>
      <point x="115" y="1077" type="curve" smooth="yes"/>
      <point x="115" y="869"/>
      <point x="230" y="799"/>
      <point x="423" y="720" type="curve" smooth="yes"/>
      <point x="630" y="635" type="line" smooth="yes"/>
      <point x="832" y="551"/>
      <point x="889" y="512"/>
      <point x="889" y="385" type="curve" smooth="yes"/>
      <point x="889" y="220"/>
      <point x="763" y="158"/>
      <point x="599" y="158" type="curve" smooth="yes"/>
      <point x="439" y="158"/>
      <point x="320" y="223"/>
      <point x="241" y="318" type="curve"/>
      <point x="224" y="318" type="line"/>
      <point x="92" y="194" type="line"/>
      <point x="170" y="85"/>
      <point x="360" y="-20"/>
    </contour>
  </outline>
</glyph>
<glyph name="V" format="1">
  <advance width="1429"/>
  <unicode hex="0056"/>
  <outline>
    <contour>
      <point x="589" y="-2" type="line"/>
      <point x="820" y="-2" type="line"/>
      <point x="1367" y="1456" type="line"/>
      <point x="1126" y="1456" type="line"/>
      <point x="1002" y="1111"/>
      <point x="828" y="599"/>
      <point x="708" y="249" type="curve"/>
      <point x="576" y="657"/>
      <point x="433" y="1054"/>
      <point x="295" y="1456" type="curve"/>
      <point x="62" y="1456" type="line"/>
    </contour>
  </outline>
</glyph>
<glyph name="W" format="1">
  <advance width="1993"/>
  <unicode hex="0057"/>
  <outline>
    <contour>
      <point x="1007" y="1456" type="move" name="top"/>
    </contour>
    <contour>
      <point x="998" y="0" type="move" name="bot"/>
    </contour>
    <contour>
      <point x="450" y="0" type="line"/>
      <point x="668" y="0" type="line"/>
      <point x="1003" y="1145" type="line"/>
      <point x="1324" y="0" type="line"/>
      <point x="1544" y="0" type="line"/>
      <point x="1922" y="1456" type="line"/>
      <point x="1697" y="1456" type="line"/>
      <point x="1429" y="297" type="line"/>
      <point x="1105" y="1432" type="line"/>
      <point x="899" y="1432" type="line"/>
      <point x="573" y="309" type="line"/>
      <point x="285" y="1456" type="line"/>
      <point x="71" y="1456" type="line"/>
    </contour>
  </outline>
</glyph>
<glyph name="X" format="1">
  <advance width="1317"/>
  <unicode hex="0058"/>
  <outline>
    <contour>
      <point x="1016" y="1456" type="line"/>
      <point x="645" y="879" type="line"/>
      <point x="535" y="763" type="line"/>
      <point x="35" y="-2" type="line"/>
      <point x="273" y="-2" type="line"/>
      <point x="671" y="597" type="line"/>
      <point x="775" y="713" type="line"/>
      <point x="1264" y="1456" type="line"/>
    </contour>
    <contour>
      <point x="51" y="1456" type="line"/>
      <point x="1018" y="-2" type="line"/>
      <point x="1275" y="-2" type="line"/>
      <point x="305" y="1456" type="line"/>
    </contour>
  </outline>
</glyph>
<glyph name="d" format="1">
  <advance width="1241"/>
  <unicode hex="0064"/>
  <outline>
    <contour>
      <point x="522" y="1082" type="move" name="top"/>
    </contour>
    <contour>
      <point x="1112" y="1178" type="move" name="caron.alt"/>
    </contour>
    <contour>
      <point x="962" y="1307" type="move" name="mid"/>
    </contour>
    <contour>
      <point x="570" y="-20" type="curve" smooth="yes"/>
      <point x="687" y="-20"/>
      <point x="803" y="31"/>
      <point x="876" y="125" type="curve"/>
      <point x="886" y="0" type="line"/>
      <point x="1076" y="0" type="line"/>
      <point x="1076" y="1560" type="line"/>
      <point x="854" y="1540" type="line"/>
      <point x="854" y="1150" type="line"/>
      <point x="859" y="989" type="line"/>
      <point x="800" y="1054"/>
      <point x="709" y="1103"/>
      <point x="576" y="1103" type="curve"/>
      <point x="279" y="1103"/>
      <point x="111" y="879"/>
      <point x="111" y="542" type="curve" smooth="yes"/>
      <point x="111" y="212"/>
      <point x="269" y="-20"/>
    </contour>
    <contour>
      <point x="604" y="135" type="curve" smooth="yes"/>
      <point x="425" y="135"/>
      <point x="334" y="275"/>
      <point x="334" y="544" type="curve" smooth="yes"/>
      <point x="334" y="815"/>
      <point x="430" y="950"/>
      <point x="606" y="950" type="curve" smooth="yes"/>
      <point x="716" y="950"/>
      <point x="807" y="907"/>
      <point x="858" y="834" type="curve"/>
      <point x="858" y="246" type="line"/>
      <point x="800" y="172"/>
      <point x="710" y="135"/>
    </contour>
  </outline>
</glyph>
<glyph name="e" format="1">
  <advance width="1155"/>
  <unicode hex="0065"/>
  <outline>
    <contour>
      <point x="625" y="1082" type="move" name="top"/>
    </contour>
    <contour>
      <point x="889" y="42" type="move" name="ogonek"/>
    </contour>
    <contour>
      <point x="638" y="1" type="move" name="bot"/>
    </contour>
    <contour>
      <point x="643" y="-20" type="curve" smooth="yes"/>
      <point x="802" y="-20"/>
      <point x="938" y="26"/>
      <point x="1026" y="91" type="curve"/>
      <point x="978" y="224" type="line"/>
      <point x="964" y="224" type="line"/>
      <point x="875" y="172"/>
      <point x="793" y="134"/>
      <point x="670" y="134" type="curve" smooth="yes"/>
      <point x="485" y="134"/>
      <point x="348" y="246"/>
      <point x="333" y="497" type="curve"/>
      <point x="1043" y="497" type="line"/>
      <point x="1043" y="499"/>
      <point x="1052" y="572"/>
      <point x="1052" y="612" type="curve" smooth="yes"/>
      <point x="1050" y="913"/>
      <point x="899" y="1105"/>
      <point x="618" y="1105" type="curve" smooth="yes"/>
      <point x="333" y="1105"/>
      <point x="112" y="896"/>
      <point x="112" y="539" type="curve" smooth="yes"/>
      <point x="112" y="192"/>
      <point x="337" y="-20"/>
    </contour>
    <contour>
      <point x="334" y="628" type="line"/>
      <point x="351" y="834"/>
      <point x="465" y="951"/>
      <point x="628" y="951" type="curve" smooth="yes"/>
      <point x="787" y="951"/>
      <point x="864" y="837"/>
      <point x="866" y="628" type="curve"/>
    </contour>
  </outline>
</glyph>
<glyph name="g" format="1">
  <advance width="1217"/>
  <unicode hex="0067"/>
  <outline>
    <contour>
      <point x="598" y="1082" type="move" name="top"/>
    </contour>
    <contour>
      <point x="530" y="-491" type="curve" smooth="yes"/>
      <point x="854" y="-491"/>
      <point x="1065" y="-350"/>
      <point x="1065" y="17" type="curve" smooth="yes"/>
      <point x="1065" y="1082" type="line"/>
      <point x="869" y="1082" type="line"/>
      <point x="863" y="976" type="line"/>
      <point x="804" y="1048"/>
      <point x="709" y="1105"/>
      <point x="574" y="1105" type="curve" smooth="yes"/>
      <point x="301" y="1105"/>
      <point x="106" y="902"/>
      <point x="106" y="550" type="curve" smooth="yes"/>
      <point x="106" y="177"/>
      <point x="294" y="-15"/>
      <point x="568" y="-15" type="curve" smooth="yes"/>
      <point x="674" y="-15"/>
      <point x="784" y="15"/>
      <point x="859" y="94" type="curve"/>
      <point x="861" y="79"/>
      <point x="862" y="-23"/>
      <point x="862" y="-26" type="curve" smooth="yes"/>
      <point x="862" y="-265"/>
      <point x="707" y="-325"/>
      <point x="518" y="-325" type="curve" smooth="yes"/>
      <point x="436" y="-325"/>
      <point x="348" y="-314"/>
      <point x="264" y="-301" type="curve"/>
      <point x="247" y="-463" type="line"/>
      <point x="347" y="-480"/>
      <point x="443" y="-491"/>
    </contour>
    <contour>
      <point x="602" y="134" type="curve" smooth="yes"/>
      <point x="418" y="134"/>
      <point x="328" y="283"/>
      <point x="328" y="550" type="curve" smooth="yes"/>
      <point x="328" y="815"/>
      <point x="429" y="950"/>
      <point x="601" y="950" type="curve" smooth="yes"/>
      <point x="712" y="950"/>
      <point x="792" y="911"/>
      <point x="853" y="828" type="curve"/>
      <point x="853" y="239" type="line"/>
      <point x="800" y="171"/>
      <point x="705" y="134"/>
    </contour>
  </outline>
</glyph>
<glyph name="k" format="1">
  <advance width="1122"/>
  <unicode hex="006B"/>
  <outline>
    <contour>
      <point x="609" y="0" type="move" name="bot"/>
    </contour>
    <contour>
      <point x="161" y="0" type="line"/>
      <point x="379" y="0" type="line"/>
      <point x="379" y="443" type="line"/>
      <point x="348" y="377" type="line"/>
      <point x="511" y="521" type="line"/>
      <point x="461" y="529" type="line"/>
      <point x="873" y="0" type="line"/>
      <point x="1101" y="0" type="line"/>
      <point x="1101" y="26" type="line"/>
      <point x="613" y="633" type="line"/>
      <point x="610" y="560" type="line"/>
      <point x="1073" y="1060" type="line"/>
      <point x="1073" y="1082" type="line"/>
      <point x="833" y="1082" type="line"/>
      <point x="339" y="544" type="line"/>
      <point x="372" y="532" type="line"/>
      <point x="379" y="780" type="line"/>
      <point x="379" y="1560" type="line"/>
      <point x="161" y="1540" type="line"/>
    </contour>
  </outline>
</glyph>
<glyph name="l" format="1">
  <advance width="655"/>
  <unicode hex="006C"/>
  <outline>
    <contour>
      <point x="347" y="1513" type="move" name="top"/>
    </contour>
    <contour>
      <point x="306" y="822" type="move" name="mid"/>
    </contour>
    <contour>
      <point x="578" y="-9" type="line"/>
      <point x="593" y="146" type="line"/>
      <point x="543" y="155" type="line" smooth="yes"/>
      <point x="419" y="176"/>
      <point x="389" y="189"/>
      <point x="389" y="570" type="curve" smooth="yes"/>
      <point x="389" y="1560" type="line"/>
      <point x="171" y="1540" type="line"/>
      <point x="171" y="570" type="line" smooth="yes"/>
      <point x="171" y="75"/>
      <point x="275" y="13"/>
      <point x="505" y="-3" type="curve" smooth="yes"/>
    </contour>
  </outline>
</glyph>
<glyph name="m" format="1">
  <advance width="1853"/>
  <unicode hex="006D"/>
  <outline>
    <contour>
      <point x="982" y="1082" type="move" name="top"/>
    </contour>
    <contour>
      <point x="156" y="0" type="line"/>
      <point x="375" y="0" type="line"/>
      <point x="375" y="635" type="line"/>
      <point x="396" y="823"/>
      <point x="486" y="950"/>
      <point x="633" y="950" type="curve" smooth="yes"/>
      <point x="767" y="950"/>
      <point x="822" y="851"/>
      <point x="822" y="612" type="curve" smooth="yes"/>
      <point x="822" y="0" type="line"/>
      <point x="1042" y="0" type="line"/>
      <point x="1042" y="101"/>
      <point x="1042" y="610"/>
      <point x="1041" y="609" type="curve" smooth="yes"/>
      <point x="1041" y="824"/>
      <point x="1178" y="950"/>
      <point x="1303" y="950" type="curve" smooth="yes"/>
      <point x="1458" y="950"/>
      <point x="1488" y="804"/>
      <point x="1488" y="640" type="curve" smooth="yes"/>
      <point x="1488" y="0" type="line"/>
      <point x="1707" y="0" type="line"/>
      <point x="1707" y="693" type="line" smooth="yes"/>
      <point x="1707" y="958"/>
      <point x="1583" y="1105"/>
      <point x="1357" y="1105" type="curve" smooth="yes"/>
      <point x="1198" y="1105"/>
      <point x="1074" y="1023"/>
      <point x="1007" y="861" type="curve"/>
      <point x="961" y="1018"/>
      <point x="847" y="1105"/>
      <point x="688" y="1105" type="curve" smooth="yes"/>
      <point x="541" y="1105"/>
      <point x="425" y="1031"/>
      <point x="360" y="877" type="curve"/>
      <point x="341" y="1082" type="line"/>
      <point x="156" y="1082" type="line"/>
    </contour>
  </outline>
</glyph>
<glyph name="o" format="1">
  <advance width="1224"/>
  <unicode hex="006F"/>
  <outline>
    <contour>
      <point x="612" y="1082" type="move" name="top"/>
    </contour>
    <contour>
      <point x="706" y="1" type="move" name="ogonek"/>
    </contour>
    <contour>
      <point x="612" y="134" type="curve" smooth="yes"/>
      <point x="420" y="134"/>
      <point x="333" y="297"/>
      <point x="333" y="542" type="curve" smooth="yes"/>
      <point x="333" y="790"/>
      <point x="420" y="950"/>
      <point x="612" y="950" type="curve" smooth="yes"/>
      <point x="804" y="950"/>
      <point x="891" y="790"/>
      <point x="891" y="542" type="curve" smooth="yes"/>
      <point x="891" y="298"/>
      <point x="804" y="134"/>
    </contour>
    <contour>
      <point x="612" y="-20" type="curve" smooth="yes"/>
      <point x="932" y="-20"/>
      <point x="1113" y="207"/>
      <point x="1113" y="543" type="curve" smooth="yes"/>
      <point x="1113" y="883"/>
      <point x="933" y="1105"/>
      <point x="612" y="1105" type="curve" smooth="yes"/>
      <point x="290" y="1105"/>
      <point x="110" y="883"/>
      <point x="110" y="543" type="curve" smooth="yes"/>
      <point x="110" y="207"/>
      <point x="292" y="-20"/>
    </contour>
  </outline>
</glyph>
<glyph name="p" format="1">
  <advance width="1233"/>
  <unicode hex="0070"/>
  <outline>
    <contour>
      <point x="667" y="1082" type="move" name="top"/>
    </contour>
    <contour>
      <point x="162" y="-462" type="line"/>
      <point x="379" y="-462" type="line"/>
      <point x="379" y="-65" type="line"/>
      <point x="374" y="92" type="line"/>
      <point x="438" y="24"/>
      <point x="536" y="-20"/>
      <point x="668" y="-20" type="curve" smooth="yes"/>
      <point x="954" y="-20"/>
      <point x="1122" y="212"/>
      <point x="1122" y="542" type="curve" smooth="yes"/>
      <point x="1122" y="874"/>
      <point x="985" y="1105"/>
      <point x="693" y="1105" type="curve" smooth="yes"/>
      <point x="533" y="1105"/>
      <point x="416" y="1023"/>
      <point x="364" y="870" type="curve"/>
      <point x="349" y="1082" type="line"/>
      <point x="162" y="1082" type="line"/>
    </contour>
    <contour>
      <point x="635" y="134" type="curve" smooth="yes"/>
      <point x="525" y="134"/>
      <point x="434" y="177"/>
      <point x="375" y="258" type="curve"/>
      <point x="375" y="611" type="line"/>
      <point x="382" y="813"/>
      <point x="465" y="950"/>
      <point x="653" y="950" type="curve" smooth="yes"/>
      <point x="832" y="950"/>
      <point x="899" y="795"/>
      <point x="899" y="544" type="curve" smooth="yes"/>
      <point x="899" y="273"/>
      <point x="811" y="134"/>
    </contour>
  </outline>
</glyph>
<glyph name="r" format="1">
  <advance width="797"/>
  <unicode hex="0072"/>
  <outline>
    <contour>
      <point x="452" y="1082" type="move" name="top"/>
    </contour>
    <contour>
      <point x="305" y="0" type="move" name="bot"/>
    </contour>
    <contour>
      <point x="157" y="0" type="line"/>
      <point x="374" y="0" type="line"/>
      <point x="374" y="613" type="line" smooth="yes"/>
      <point x="374" y="791"/>
      <point x="486" y="926"/>
      <point x="690" y="922" type="curve" smooth="yes"/>
      <point x="733" y="920" type="line"/>
      <point x="749" y="1087" type="line"/>
      <point x="717" y="1093"/>
      <point x="687" y="1094"/>
      <point x="658" y="1094" type="curve" smooth="yes"/>
      <point x="529" y="1094"/>
      <point x="404" y="1024"/>
      <point x="335" y="813" type="curve"/>
      <point x="361" y="802" type="line"/>
      <point x="338" y="1082" type="line"/>
      <point x="157" y="1082" type="line"/>
    </contour>
  </outline>
</glyph>
<glyph name="s" format="1">
  <advance width="991"/>
  <unicode hex="0073"/>
  <outline>
    <contour>
      <point x="502" y="1083" type="move" name="top"/>
    </contour>
    <contour>
      <point x="485" y="1" type="move" name="bot"/>
    </contour>
    <contour>
      <point x="513" y="-20" type="curve" smooth="yes"/>
      <point x="736" y="-20"/>
      <point x="904" y="91"/>
      <point x="904" y="317" type="curve" smooth="yes"/>
      <point x="904" y="437"/>
      <point x="865" y="537"/>
      <point x="623" y="619" type="curve"/>
      <point x="490" y="666" type="line" smooth="yes"/>
      <point x="356" y="710"/>
      <point x="331" y="743"/>
      <point x="331" y="809" type="curve" smooth="yes"/>
      <point x="331" y="896"/>
      <point x="387" y="950"/>
      <point x="525" y="950" type="curve" smooth="yes"/>
      <point x="635" y="950"/>
      <point x="718" y="907"/>
      <point x="770" y="847" type="curve"/>
      <point x="781" y="848" type="line"/>
      <point x="886" y="942" type="line"/>
      <point x="813" y="1040"/>
      <point x="689" y="1105"/>
      <point x="511" y="1105" type="curve" smooth="yes"/>
      <point x="268" y="1105"/>
      <point x="113" y="992"/>
      <point x="113" y="808" type="curve" smooth="yes"/>
      <point x="113" y="672"/>
      <point x="158" y="583"/>
      <point x="408" y="501" type="curve" smooth="yes"/>
      <point x="534" y="459" type="line" smooth="yes"/>
      <point x="682" y="412"/>
      <point x="702" y="369"/>
      <point x="702" y="306" type="curve" smooth="yes"/>
      <point x="702" y="190"/>
      <point x="632" y="132"/>
      <point x="505" y="132" type="curve" smooth="yes"/>
      <point x="407" y="132"/>
      <point x="284" y="165"/>
      <point x="199" y="264" type="curve"/>
      <point x="184" y="264" type="line"/>
      <point x="78" y="157" type="line"/>
      <point x="172" y="40"/>
      <point x="331" y="-20"/>
    </contour>
  </outline>
</glyph>
<glyph name="u" format="1">
  <advance width="1225"/>
  <unicode hex="0075"/>
  <outline>
    <contour>
      <point x="625" y="1083" type="move" name="top"/>
    </contour>
    <contour>
      <point x="969" y="1" type="move" name="ogonek"/>
    </contour>
    <contour>
      <point x="584" y="1" type="move" name="bot"/>
    </contour>
    <contour>
      <point x="532" y="-20" type="curve" smooth="yes"/>
      <point x="694" y="-20"/>
      <point x="797" y="49"/>
      <point x="865" y="141" type="curve"/>
      <point x="877" y="0" type="line"/>
      <point x="1066" y="0" type="line"/>
      <point x="1066" y="1082" type="line"/>
      <point x="847" y="1082" type="line"/>
      <point x="847" y="267" type="line"/>
      <point x="808" y="215"/>
      <point x="730" y="133"/>
      <point x="578" y="133" type="curve" smooth="yes"/>
      <point x="424" y="133"/>
      <point x="366" y="230"/>
      <point x="366" y="418" type="curve" smooth="yes"/>
      <point x="366" y="1082" type="line"/>
      <point x="147" y="1082" type="line"/>
      <point x="147" y="405" type="line" smooth="yes"/>
      <point x="147" y="125"/>
      <point x="279" y="-20"/>
    </contour>
  </outline>
</glyph>
<glyph name="v" format="1">
  <advance width="1085"/>
  <unicode hex="0076"/>
  <outline>
    <contour>
      <point x="438" y="0" type="line"/>
      <point x="657" y="0" type="line"/>
      <point x="1039" y="1082" type="line"/>
      <point x="820" y="1082" type="line"/>
      <point x="655" y="565" type="line"/>
      <point x="531" y="173" type="line"/>
      <point x="577" y="173" type="line"/>
      <point x="444" y="566" type="line"/>
      <point x="273" y="1082" type="line"/>
      <point x="50" y="1082" type="line"/>
    </contour>
  </outline>
</glyph>
<glyph name="w" format="1">
  <advance width="1531"/>
  <unicode hex="0077"/>
  <outline>
    <contour>
      <point x="773" y="1082" type="move" name="top"/>
    </contour>
    <contour>
      <point x="313" y="-2" type="line"/>
      <point x="509" y="-2" type="line"/>
      <point x="773" y="868" type="line"/>
      <point x="1028" y="-2" type="line"/>
      <point x="1227" y="-2" type="line"/>
      <point x="1509" y="1082" type="line"/>
      <point x="1314" y="1082" type="line"/>
      <point x="1126" y="262" type="line"/>
      <point x="879" y="1082" type="line"/>
      <point x="662" y="1082" type="line"/>
      <point x="424" y="261" type="line"/>
      <point x="226" y="1082" type="line"/>
      <point x="22" y="1082" type="line"/>
    </contour>
  </outline>
</glyph>
<glyph name="x" format="1">
  <advance width="1066"/>
  <unicode hex="0078"/>
  <outline>
    <contour>
      <point x="40" y="-2" type="line"/>
      <point x="255" y="-2" type="line"/>
      <point x="523" y="391" type="line"/>
      <point x="785" y="-2" type="line"/>
      <point x="1024" y="-2" type="line"/>
      <point x="656" y="549" type="line"/>
      <point x="1016" y="1082" type="line"/>
      <point x="802" y="1082" type="line"/>
      <point x="551" y="706" type="line"/>
      <point x="300" y="1082" type="line"/>
      <point x="62" y="1082" type="line"/>
      <point x="418" y="547" type="line"/>
    </contour>
  </outline>
</glyph>
<glyph name="y" format="1">
  <advance width="1132"/>
  <unicode hex="0079"/>
  <outline>
    <contour>
      <point x="576" y="1082" type="move" name="top"/>
    </contour>
    <contour>
      <point x="481" y="-422" type="line"/>
      <point x="1097" y="1082" type="line"/>
      <point x="889" y="1082" type="line"/>
      <point x="579" y="293" type="line"/>
      <point x="248" y="1082" type="line"/>
      <point x="25" y="1082" type="line"/>
      <point x="470" y="66" type="line"/>
      <point x="298" y="-367" type="line"/>
    </contour>
  </outline>
</glyph>
<glyph name="braceleft" format="1">
  <advance width="882"/>
  <unicode hex="007B"/>
  <outline>
    <contour>
      <point x="754" y="-274" type="curve"/>
      <point x="754" y="-133" type="line"/>
      <point x="609" y="-132"/>
      <point x="589" y="-107"/>
      <point x="589" y="82" type="curve" smooth="yes"/>
      <point x="589" y="343" type="line" smooth="yes"/>
      <point x="589" y="502"/>
      <point x="551" y="589"/>
      <point x="391" y="617" type="curve"/>
      <point x="551" y="646"/>
      <point x="589" y="733"/>
      <point x="589" y="891" type="curve" smooth="yes"/>
      <point x="589" y="1155" type="line" smooth="yes"/>
      <point x="589" y="1343"/>
      <point x="609" y="1368"/>
      <point x="754" y="1369" type="curve"/>
      <point x="754" y="1510" type="line"/>
      <point x="480" y="1510"/>
      <point x="395" y="1464"/>
      <point x="395" y="1185" type="curve" smooth="yes"/>
      <point x="395" y="963" type="line" smooth="yes"/>
      <point x="395" y="771"/>
      <point x="391" y="698"/>
      <point x="191" y="698" type="curve"/>
      <point x="191" y="537" type="line"/>
      <point x="393" y="537"/>
      <point x="395" y="464"/>
      <point x="395" y="272" type="curve" smooth="yes"/>
      <point x="395" y="51" type="line" smooth="yes"/>
      <point x="395" y="-228"/>
      <point x="480" y="-274"/>
    </contour>
  </outline>
</glyph>
<glyph name="braceright" format="1">
  <advance width="882"/>
  <unicode hex="007D"/>
  <outline>
    <contour>
      <point x="134" y="-274" type="line"/>
      <point x="408" y="-274"/>
      <point x="493" y="-228"/>
      <point x="493" y="51" type="curve" smooth="yes"/>
      <point x="493" y="272" type="line" smooth="yes"/>
      <point x="493" y="464"/>
      <point x="495" y="537"/>
      <point x="697" y="537" type="curve"/>
      <point x="697" y="698" type="line"/>
      <point x="497" y="698"/>
      <point x="493" y="771"/>
      <point x="493" y="963" type="curve" smooth="yes"/>
      <point x="493" y="1185" type="line" smooth="yes"/>
      <point x="493" y="1464"/>
      <point x="408" y="1510"/>
      <point x="134" y="1510" type="curve"/>
      <point x="134" y="1369" type="line"/>
      <point x="279" y="1368"/>
      <point x="299" y="1343"/>
      <point x="299" y="1155" type="curve" smooth="yes"/>
      <point x="299" y="891" type="line" smooth="yes"/>
      <point x="299" y="733"/>
      <point x="336" y="646"/>
      <point x="497" y="617" type="curve"/>
      <point x="336" y="589"/>
      <point x="299" y="502"/>
      <point x="299" y="343" type="curve" smooth="yes"/>
      <point x="299" y="82" type="line" smooth="yes"/>
      <point x="299" y="-107"/>
      <point x="279" y="-132"/>
      <point x="134" y="-133" type="curve"/>
    </contour>
  </outline>
</glyph>
<glyph name="sterling" format="1">
  <advance width="1159"/>
  <unicode hex="00A3"/>
  <outline>
    <contour>
      <point x="968" y="1222" type="line"/>
      <point x="1045" y="1362" type="line"/>
      <point x="986" y="1418"/>
      <point x="871" y="1497"/>
      <point x="683" y="1497" type="curve" smooth="yes"/>
      <point x="348" y="1497"/>
      <point x="251" y="1248"/>
      <point x="251" y="961" type="curve" smooth="yes"/>
      <point x="251" y="824" type="line"/>
      <point x="75" y="824" type="line"/>
      <point x="75" y="678" type="line"/>
      <point x="251" y="678" type="line"/>
      <point x="251" y="164" type="line"/>
      <point x="78" y="146" type="line"/>
      <point x="89" y="0" type="line"/>
      <point x="1038" y="0" type="line"/>
      <point x="1048" y="166" type="line"/>
      <point x="478" y="166" type="line"/>
      <point x="478" y="678" type="line"/>
      <point x="840" y="678" type="line"/>
      <point x="840" y="824" type="line"/>
      <point x="478" y="824" type="line"/>
      <point x="478" y="974" type="line" smooth="yes"/>
      <point x="478" y="1200"/>
      <point x="560" y="1314"/>
      <point x="708" y="1316" type="curve" smooth="yes"/>
      <point x="813" y="1319"/>
      <point x="878" y="1276"/>
      <point x="950" y="1222" type="curve"/>
    </contour>
  </outline>
</glyph>
<glyph name="section" format="1">
  <advance width="1064"/>
  <unicode hex="00A7"/>
  <outline>
    <contour>
      <point x="521" y="-20" type="curve" smooth="yes"/>
      <point x="720" y="-17"/>
      <point x="884" y="73"/>
      <point x="884" y="305" type="curve" smooth="yes"/>
      <point x="884" y="392"/>
      <point x="863" y="459"/>
      <point x="805" y="513" type="curve"/>
      <point x="852" y="562"/>
      <point x="885" y="627"/>
      <point x="886" y="712" type="curve" smooth="yes"/>
      <point x="889" y="865"/>
      <point x="837" y="948"/>
      <point x="615" y="1024" type="curve" smooth="yes"/>
      <point x="378" y="1105"/>
      <point x="352" y="1131"/>
      <point x="352" y="1206" type="curve" smooth="yes"/>
      <point x="352" y="1292"/>
      <point x="405" y="1342"/>
      <point x="543" y="1342" type="curve" smooth="yes"/>
      <point x="646" y="1342"/>
      <point x="743" y="1306"/>
      <point x="804" y="1275" type="curve"/>
      <point x="849" y="1414" type="line"/>
      <point x="754" y="1465"/>
      <point x="642" y="1496"/>
      <point x="524" y="1496" type="curve" smooth="yes"/>
      <point x="314" y="1496"/>
      <point x="167" y="1394"/>
      <point x="163" y="1206" type="curve" smooth="yes"/>
      <point x="160" y="1113"/>
      <point x="189" y="1043"/>
      <point x="267" y="983" type="curve"/>
      <point x="205" y="930"/>
      <point x="166" y="857"/>
      <point x="166" y="774" type="curve" smooth="yes"/>
      <point x="166" y="645"/>
      <point x="226" y="565"/>
      <point x="419" y="498" type="curve" smooth="yes"/>
      <point x="667" y="413"/>
      <point x="705" y="366"/>
      <point x="704" y="293" type="curve" smooth="yes"/>
      <point x="702" y="193"/>
      <point x="640" y="136"/>
      <point x="531" y="134" type="curve" smooth="yes"/>
      <point x="416" y="129"/>
      <point x="293" y="171"/>
      <point x="185" y="225" type="curve"/>
      <point x="185" y="60" type="line"/>
      <point x="287" y="10"/>
      <point x="412" y="-22"/>
    </contour>
    <contour>
      <point x="683" y="588" type="curve"/>
      <point x="661" y="598"/>
      <point x="619" y="615"/>
      <point x="511" y="648" type="curve" smooth="yes"/>
      <point x="370" y="699"/>
      <point x="336" y="723"/>
      <point x="336" y="799" type="curve" smooth="yes"/>
      <point x="336" y="852"/>
      <point x="356" y="891"/>
      <point x="397" y="914" type="curve"/>
      <point x="404" y="910"/>
      <point x="436" y="898"/>
      <point x="544" y="860" type="curve" smooth="yes"/>
      <point x="682" y="813"/>
      <point x="722" y="763"/>
      <point x="722" y="696" type="curve" smooth="yes"/>
      <point x="722" y="651"/>
      <point x="708" y="614"/>
    </contour>
  </outline>
</glyph>
<glyph name="dieresis" format="1">
  <advance width="970"/>
  <unicode hex="00A8"/>
  <outline>
    <contour>
      <point x="482" y="1082" type="move" name="_top"/>
    </contour>
    <contour>
      <point x="248" y="1276" type="curve" smooth="yes"/>
      <point x="326" y="1276"/>
      <point x="365" y="1327"/>
      <point x="365" y="1395" type="curve" smooth="yes"/>
      <point x="365" y="1463"/>
      <point x="326" y="1515"/>
      <point x="248" y="1515" type="curve" smooth="yes"/>
      <point x="168" y="1515"/>
      <point x="131" y="1463"/>
      <point x="131" y="1395" type="curve" smooth="yes"/>
      <point x="131" y="1327"/>
      <point x="170" y="1276"/>
    </contour>
    <contour>
      <point x="701" y="1276" type="curve" smooth="yes"/>
      <point x="779" y="1276"/>
      <point x="817" y="1327"/>
      <point x="817" y="1395" type="curve" smooth="yes"/>
      <point x="817" y="1463"/>
      <point x="779" y="1515"/>
      <point x="701" y="1515" type="curve" smooth="yes"/>
      <point x="621" y="1515"/>
      <point x="582" y="1463"/>
      <point x="582" y="1395" type="curve" smooth="yes"/>
      <point x="582" y="1327"/>
      <point x="622" y="1276"/>
    </contour>
  </outline>
</glyph>
<glyph name="ordfeminine" format="1">
  <advance width="1129"/>
  <unicode hex="00AA"/>
  <outline>
    <contour>
      <point x="457" y="592" type="curve" smooth="yes"/>
      <point x="588" y="592"/>
      <point x="679" y="638"/>
      <point x="750" y="721" type="curve"/>
      <point x="767" y="609" type="line"/>
      <point x="917" y="609" type="line"/>
      <point x="917" y="1203" type="line" smooth="yes"/>
      <point x="917" y="1462"/>
      <point x="765" y="1560"/>
      <point x="553" y="1560" type="curve" smooth="yes"/>
      <point x="428" y="1560"/>
      <point x="295" y="1530"/>
      <point x="193" y="1469" type="curve"/>
      <point x="240" y="1337" type="line"/>
      <point x="333" y="1394"/>
      <point x="451" y="1421"/>
      <point x="539" y="1421" type="curve" smooth="yes"/>
      <point x="665" y="1421"/>
      <point x="731" y="1364"/>
      <point x="731" y="1225" type="curve" smooth="yes"/>
      <point x="731" y="1127" type="line"/>
      <point x="538" y="1129" type="line" smooth="yes"/>
      <point x="295" y="1129"/>
      <point x="160" y="1040"/>
      <point x="160" y="864" type="curve" smooth="yes"/>
      <point x="160" y="682"/>
      <point x="281" y="592"/>
    </contour>
    <contour>
      <point x="497" y="715" type="curve" smooth="yes"/>
      <point x="407" y="715"/>
      <point x="335" y="754"/>
      <point x="335" y="864" type="curve" smooth="yes"/>
      <point x="335" y="971"/>
      <point x="402" y="1021"/>
      <point x="575" y="1021" type="curve" smooth="yes"/>
      <point x="731" y="1020" type="line"/>
      <point x="731" y="826" type="line"/>
      <point x="679" y="761"/>
      <point x="598" y="715"/>
    </contour>
  </outline>
</glyph>
<glyph name="guillemotleft" format="1">
  <advance width="1049"/>
  <unicode hex="00AB"/>
  <outline>
    <contour>
      <point x="373" y="142" type="line"/>
      <point x="556" y="142" type="line"/>
      <point x="287" y="558" type="line"/>
      <point x="563" y="972" type="line"/>
      <point x="377" y="972" type="line"/>
      <point x="91" y="555" type="line"/>
    </contour>
    <contour>
      <point x="754" y="142" type="line"/>
      <point x="938" y="142" type="line"/>
      <point x="668" y="558" type="line"/>
      <point x="943" y="972" type="line"/>
      <point x="757" y="972" type="line"/>
      <point x="472" y="555" type="line"/>
    </contour>
  </outline>
</glyph>
<glyph name="plusminus" format="1">
  <advance width="1136"/>
  <unicode hex="00B1"/>
  <outline>
    <contour>
      <point x="486" y="244" type="line"/>
      <point x="643" y="244" type="line"/>
      <point x="643" y="623" type="line"/>
      <point x="1005" y="623" type="line"/>
      <point x="1005" y="773" type="line"/>
      <point x="642" y="773" type="line"/>
      <point x="642" y="1148" type="line"/>
      <point x="486" y="1148" type="line"/>
      <point x="486" y="773" type="line"/>
      <point x="120" y="773" type="line"/>
      <point x="120" y="623" type="line"/>
      <point x="486" y="623" type="line"/>
    </contour>
    <contour>
      <point x="105" y="0" type="line"/>
      <point x="1037" y="0" type="line"/>
      <point x="1037" y="142" type="line"/>
      <point x="105" y="142" type="line"/>
    </contour>
  </outline>
</glyph>
<glyph name="uni00B2" format="1">
  <advance width="798"/>
  <unicode hex="00B2"/>
  <outline>
    <contour>
      <point x="153" y="636" type="line"/>
      <point x="676" y="636" type="line"/>
      <point x="687" y="754" type="line"/>
      <point x="359" y="754" type="line"/>
      <point x="472" y="860"/>
      <point x="467" y="848"/>
      <point x="551" y="932" type="curve" smooth="yes"/>
      <point x="637" y="1021"/>
      <point x="688" y="1115"/>
      <point x="688" y="1228" type="curve" smooth="yes"/>
      <point x="688" y="1402"/>
      <point x="557" y="1496"/>
      <point x="418" y="1496" type="curve" smooth="yes"/>
      <point x="288" y="1496"/>
      <point x="190" y="1451"/>
      <point x="123" y="1363" type="curve"/>
      <point x="190" y="1267" type="line"/>
      <point x="241" y="1333"/>
      <point x="315" y="1370"/>
      <point x="407" y="1370" type="curve" smooth="yes"/>
      <point x="486" y="1370"/>
      <point x="548" y="1312"/>
      <point x="548" y="1225" type="curve" smooth="yes"/>
      <point x="548" y="1173"/>
      <point x="498" y="1099"/>
      <point x="443" y="1031" type="curve" smooth="yes"/>
      <point x="299" y="872"/>
      <point x="255" y="856"/>
      <point x="153" y="754" type="curve"/>
    </contour>
  </outline>
</glyph>
<glyph name="uni00B5" format="1">
  <advance width="1206"/>
  <unicode hex="00B5"/>
  <outline>
    <contour>
      <point x="138" y="631" type="line"/>
      <point x="138" y="-296" type="line"/>
      <point x="356" y="-296" type="line"/>
      <point x="356" y="631" type="line"/>
    </contour>
    <component base="u"/>
  </outline>
</glyph>
<glyph name="paragraph" format="1">
  <advance width="1167"/>
  <unicode hex="00B6"/>
  <outline>
    <contour>
      <point x="517" y="-215" type="line"/>
      <point x="656" y="-215" type="line"/>
      <point x="656" y="1325" type="line"/>
      <point x="808" y="1325" type="line"/>
      <point x="808" y="-215" type="line"/>
      <point x="947" y="-215" type="line"/>
      <point x="947" y="1456" type="line"/>
      <point x="579" y="1456" type="line" smooth="yes"/>
      <point x="233" y="1456"/>
      <point x="124" y="1291"/>
      <point x="124" y="1099" type="curve" smooth="yes"/>
      <point x="124" y="918"/>
      <point x="235" y="746"/>
      <point x="517" y="746" type="curve"/>
    </contour>
  </outline>
</glyph>
<glyph name="periodcentered" format="1">
  <advance width="637"/>
  <unicode hex="00B7"/>
  <outline>
    <contour>
      <point x="367" y="495" type="curve" smooth="yes"/>
      <point x="441" y="495"/>
      <point x="494" y="547"/>
      <point x="494" y="625" type="curve" smooth="yes"/>
      <point x="494" y="701"/>
      <point x="441" y="751"/>
      <point x="367" y="751" type="curve" smooth="yes"/>
      <point x="291" y="751"/>
      <point x="238" y="701"/>
      <point x="238" y="625" type="curve" smooth="yes"/>
      <point x="238" y="547"/>
      <point x="291" y="495"/>
    </contour>
  </outline>
</glyph>
<glyph name="uni00B9" format="1">
  <advance width="878"/>
  <unicode hex="00B9"/>
  <outline>
    <contour>
      <point x="257" y="613" type="line"/>
      <point x="735" y="613" type="line"/>
      <point x="735" y="738" type="line"/>
      <point x="575" y="738" type="line"/>
      <point x="575" y="1481" type="line"/>
      <point x="453" y="1481" type="line"/>
      <point x="418" y="1454"/>
      <point x="301" y="1395"/>
      <point x="248" y="1373" type="curve"/>
      <point x="248" y="1247" type="line"/>
      <point x="278" y="1254"/>
      <point x="382" y="1300"/>
      <point x="420" y="1322" type="curve"/>
      <point x="420" y="738" type="line"/>
      <point x="257" y="738" type="line"/>
    </contour>
  </outline>
</glyph>
<glyph name="onequarter" format="1">
  <advance width="1754"/>
  <unicode hex="00BC"/>
  <outline>
    <contour>
      <point x="129" y="595" type="line"/>
      <point x="569" y="595" type="line"/>
      <point x="569" y="721" type="line"/>
      <point x="432" y="721" type="line"/>
      <point x="432" y="1485" type="line"/>
      <point x="308" y="1485" type="line"/>
      <point x="271" y="1453"/>
      <point x="153" y="1395"/>
      <point x="117" y="1379" type="curve"/>
      <point x="117" y="1251" type="line"/>
      <point x="140" y="1261"/>
      <point x="243" y="1303"/>
      <point x="279" y="1325" type="curve"/>
      <point x="279" y="721" type="line"/>
      <point x="129" y="721" type="line"/>
    </contour>
    <contour>
      <point x="1399" y="0" type="line"/>
      <point x="1539" y="0" type="line"/>
      <point x="1539" y="187" type="line"/>
      <point x="1660" y="187" type="line"/>
      <point x="1656" y="304" type="line"/>
      <point x="1540" y="304" type="line"/>
      <point x="1540" y="863" type="line"/>
      <point x="1389" y="863" type="line"/>
      <point x="1003" y="294" type="line"/>
      <point x="1003" y="187" type="line"/>
      <point x="1399" y="187" type="line"/>
    </contour>
    <contour>
      <point x="368" y="0" type="line"/>
      <point x="527" y="0" type="line"/>
      <point x="1459" y="1485" type="line"/>
      <point x="1303" y="1485" type="line"/>
    </contour>
    <contour>
      <point x="1151" y="304" type="line"/>
      <point x="1399" y="677" type="line"/>
      <point x="1399" y="304" type="line"/>
    </contour>
  </outline>
</glyph>
<glyph name="onehalf" format="1">
  <advance width="1798"/>
  <unicode hex="00BD"/>
  <outline>
    <contour>
      <point x="1179" y="0" type="line"/>
      <point x="1696" y="0" type="line"/>
      <point x="1702" y="125" type="line"/>
      <point x="1350" y="125" type="line"/>
      <point x="1527" y="292" type="line" smooth="yes"/>
      <point x="1649" y="407"/>
      <point x="1706" y="488"/>
      <point x="1706" y="616" type="curve" smooth="yes"/>
      <point x="1706" y="778"/>
      <point x="1582" y="875"/>
      <point x="1420" y="875" type="curve" smooth="yes"/>
      <point x="1293" y="875"/>
      <point x="1184" y="809"/>
      <point x="1127" y="716" type="curve"/>
      <point x="1209" y="628" type="line"/>
      <point x="1265" y="703"/>
      <point x="1336" y="742"/>
      <point x="1414" y="742" type="curve" smooth="yes"/>
      <point x="1492" y="742"/>
      <point x="1557" y="697"/>
      <point x="1557" y="608" type="curve" smooth="yes"/>
      <point x="1557" y="543"/>
      <point x="1526" y="484"/>
      <point x="1428" y="383" type="curve" smooth="yes"/>
      <point x="1428" y="383"/>
      <point x="1169" y="120"/>
      <point x="1169" y="120" type="curve"/>
    </contour>
    <contour>
      <point x="132" y="595" type="line"/>
      <point x="575" y="595" type="line"/>
      <point x="575" y="719" type="line"/>
      <point x="436" y="719" type="line"/>
      <point x="436" y="1485" type="line"/>
      <point x="313" y="1485" type="line"/>
      <point x="275" y="1453"/>
      <point x="158" y="1395"/>
      <point x="121" y="1379" type="curve"/>
      <point x="121" y="1253" type="line"/>
      <point x="144" y="1262"/>
      <point x="246" y="1306"/>
      <point x="283" y="1327" type="curve"/>
      <point x="283" y="719" type="line"/>
      <point x="132" y="719" type="line"/>
    </contour>
    <contour>
      <point x="368" y="0" type="line"/>
      <point x="525" y="0" type="line"/>
      <point x="1457" y="1485" type="line"/>
      <point x="1303" y="1485" type="line"/>
    </contour>
  </outline>
</glyph>
<glyph name="threequarters" format="1">
  <advance width="1762"/>
  <unicode hex="00BE"/>
  <outline>
    <contour>
      <point x="354" y="596" type="curve" smooth="yes"/>
      <point x="509" y="596"/>
      <point x="651" y="681"/>
      <point x="651" y="862" type="curve" smooth="yes"/>
      <point x="651" y="958"/>
      <point x="593" y="1041"/>
      <point x="491" y="1069" type="curve"/>
      <point x="596" y="1092"/>
      <point x="631" y="1191"/>
      <point x="632" y="1264" type="curve" smooth="yes"/>
      <point x="632" y="1416"/>
      <point x="507" y="1484"/>
      <point x="368" y="1484" type="curve" smooth="yes"/>
      <point x="278" y="1484"/>
      <point x="181" y="1455"/>
      <point x="109" y="1402" type="curve"/>
      <point x="162" y="1300" type="line"/>
      <point x="231" y="1340"/>
      <point x="299" y="1361"/>
      <point x="355" y="1361" type="curve" smooth="yes"/>
      <point x="434" y="1361"/>
      <point x="489" y="1322"/>
      <point x="489" y="1244" type="curve" smooth="yes"/>
      <point x="489" y="1168"/>
      <point x="439" y="1122"/>
      <point x="334" y="1122" type="curve" smooth="yes"/>
      <point x="235" y="1122" type="line"/>
      <point x="235" y="1000" type="line"/>
      <point x="337" y="1001" type="line"/>
      <point x="453" y="1001"/>
      <point x="508" y="952"/>
      <point x="508" y="860" type="curve" smooth="yes"/>
      <point x="508" y="761"/>
      <point x="438" y="721"/>
      <point x="352" y="721" type="curve" smooth="yes"/>
      <point x="289" y="721"/>
      <point x="215" y="746"/>
      <point x="158" y="781" type="curve"/>
      <point x="108" y="671" type="line"/>
      <point x="180" y="622"/>
      <point x="269" y="596"/>
    </contour>
    <contour>
      <point x="1436" y="0" type="line"/>
      <point x="1576" y="0" type="line"/>
      <point x="1576" y="187" type="line"/>
      <point x="1697" y="187" type="line"/>
      <point x="1693" y="304" type="line"/>
      <point x="1577" y="304" type="line"/>
      <point x="1577" y="863" type="line"/>
      <point x="1426" y="863" type="line"/>
      <point x="1039" y="294" type="line"/>
      <point x="1039" y="187" type="line"/>
      <point x="1436" y="187" type="line"/>
    </contour>
    <contour>
      <point x="412" y="0" type="line"/>
      <point x="571" y="0" type="line"/>
      <point x="1503" y="1485" type="line"/>
      <point x="1347" y="1485" type="line"/>
    </contour>
    <contour>
      <point x="1188" y="304" type="line"/>
      <point x="1436" y="677" type="line"/>
      <point x="1436" y="304" type="line"/>
    </contour>
  </outline>
</glyph>
<glyph name="Oslash" format="1">
  <advance width="1629"/>
  <unicode hex="00D8"/>
  <outline>
    <contour>
      <point x="818" y="1456" type="move" name="top"/>
    </contour>
    <contour>
      <point x="526" y="-252" type="line"/>
      <point x="622" y="0" type="line"/>
      <point x="681" y="-14"/>
      <point x="746" y="-20"/>
      <point x="817" y="-20" type="curve" smooth="yes"/>
      <point x="1263" y="-20"/>
      <point x="1481" y="267"/>
      <point x="1481" y="720" type="curve" smooth="yes"/>
      <point x="1481" y="1044"/>
      <point x="1371" y="1284"/>
      <point x="1157" y="1399" type="curve"/>
      <point x="1254" y="1655" type="line"/>
      <point x="1140" y="1699" type="line"/>
      <point x="1044" y="1444" type="line"/>
      <point x="976" y="1466"/>
      <point x="901" y="1476"/>
      <point x="818" y="1476" type="curve" smooth="yes"/>
      <point x="374" y="1476"/>
      <point x="148" y="1188"/>
      <point x="148" y="721" type="curve" smooth="yes"/>
      <point x="148" y="383"/>
      <point x="267" y="139"/>
      <point x="511" y="36" type="curve"/>
      <point x="418" y="-213" type="line"/>
    </contour>
    <contour>
      <point x="583" y="226" type="line"/>
      <point x="444" y="312"/>
      <point x="389" y="490"/>
      <point x="389" y="720" type="curve" smooth="yes"/>
      <point x="389" y="1072"/>
      <point x="516" y="1297"/>
      <point x="817" y="1297" type="curve" smooth="yes"/>
      <point x="878" y="1297"/>
      <point x="932" y="1288"/>
      <point x="978" y="1271" type="curve"/>
    </contour>
    <contour>
      <point x="815" y="158" type="curve" smooth="yes"/>
      <point x="769" y="158"/>
      <point x="726" y="163"/>
      <point x="689" y="174" type="curve"/>
      <point x="1082" y="1204" type="line"/>
      <point x="1193" y="1108"/>
      <point x="1240" y="937"/>
      <point x="1240" y="720" type="curve" smooth="yes"/>
      <point x="1240" y="380"/>
      <point x="1124" y="158"/>
    </contour>
  </outline>
</glyph>
<glyph name="Thorn" format="1">
  <advance width="1264"/>
  <unicode hex="00DE"/>
  <outline>
    <contour>
      <point x="186" y="0" type="line"/>
      <point x="419" y="0" type="line"/>
      <point x="419" y="422" type="line"/>
      <point x="592" y="422" type="line" smooth="yes"/>
      <point x="979" y="422"/>
      <point x="1116" y="564"/>
      <point x="1116" y="834" type="curve" smooth="yes"/>
      <point x="1116" y="1105"/>
      <point x="928" y="1200"/>
      <point x="582" y="1200" type="curve" smooth="yes"/>
      <point x="419" y="1200" type="line"/>
      <point x="419" y="1486" type="line"/>
      <point x="186" y="1486" type="line"/>
    </contour>
    <contour>
      <point x="419" y="585" type="line"/>
      <point x="419" y="1040" type="line"/>
      <point x="587" y="1040" type="line" smooth="yes"/>
      <point x="799" y="1040"/>
      <point x="888" y="986"/>
      <point x="888" y="827" type="curve" smooth="yes"/>
      <point x="888" y="653"/>
      <point x="816" y="585"/>
      <point x="575" y="585" type="curve" smooth="yes"/>
    </contour>
  </outline>
</glyph>
<glyph name="germandbls" format="1">
  <advance width="1294"/>
  <unicode hex="00DF"/>
  <outline>
    <contour>
      <point x="864" y="-20" type="curve" smooth="yes"/>
      <point x="1083" y="-20"/>
      <point x="1206" y="103"/>
      <point x="1206" y="303" type="curve" smooth="yes"/>
      <point x="1206" y="616"/>
      <point x="818" y="713"/>
      <point x="818" y="814" type="curve" smooth="yes"/>
      <point x="818" y="894"/>
      <point x="1029" y="996"/>
      <point x="1029" y="1216" type="curve" smooth="yes"/>
      <point x="1029" y="1422"/>
      <point x="864" y="1548"/>
      <point x="626" y="1548" type="curve" smooth="yes"/>
      <point x="327" y="1548"/>
      <point x="156" y="1370"/>
      <point x="156" y="1072" type="curve" smooth="yes"/>
      <point x="156" y="1" type="line"/>
      <point x="374" y="1" type="line"/>
      <point x="374" y="1063" type="line" smooth="yes"/>
      <point x="374" y="1285"/>
      <point x="463" y="1384"/>
      <point x="635" y="1384" type="curve" smooth="yes"/>
      <point x="758" y="1384"/>
      <point x="824" y="1320"/>
      <point x="824" y="1216" type="curve" smooth="yes"/>
      <point x="824" y="1020"/>
      <point x="630" y="964"/>
      <point x="630" y="795" type="curve" smooth="yes"/>
      <point x="630" y="598"/>
      <point x="984" y="518"/>
      <point x="984" y="303" type="curve" smooth="yes"/>
      <point x="984" y="214"/>
      <point x="932" y="144"/>
      <point x="821" y="144" type="curve" smooth="yes"/>
      <point x="723" y="144"/>
      <point x="621" y="180"/>
      <point x="571" y="207" type="curve"/>
      <point x="521" y="56" type="line"/>
      <point x="612" y="13"/>
      <point x="747" y="-20"/>
    </contour>
  </outline>
</glyph>
<glyph name="ae" format="1">
  <advance width="1676"/>
  <unicode hex="00E6"/>
  <outline>
    <contour>
      <point x="968" y="1082" type="move" name="top"/>
    </contour>
    <contour>
      <point x="1228" y="-20" type="curve" smooth="yes"/>
      <point x="1386" y="-20"/>
      <point x="1521" y="27"/>
      <point x="1610" y="92" type="curve"/>
      <point x="1557" y="227" type="line"/>
      <point x="1469" y="175"/>
      <point x="1382" y="134"/>
      <point x="1254" y="134" type="curve" smooth="yes"/>
      <point x="1081" y="134"/>
      <point x="948" y="212"/>
      <point x="929" y="470" type="curve"/>
      <point x="1308" y="449"/>
      <point x="1612" y="460"/>
      <point x="1604" y="776" type="curve" smooth="yes"/>
      <point x="1601" y="945"/>
      <point x="1472" y="1102"/>
      <point x="1219" y="1102" type="curve" smooth="yes"/>
      <point x="1062" y="1102"/>
      <point x="936" y="1043"/>
      <point x="858" y="906" type="curve"/>
      <point x="815" y="1046"/>
      <point x="693" y="1102"/>
      <point x="519" y="1102" type="curve" smooth="yes"/>
      <point x="352" y="1102"/>
      <point x="221" y="1057"/>
      <point x="87" y="973" type="curve"/>
      <point x="156" y="839" type="line"/>
      <point x="280" y="914"/>
      <point x="410" y="942"/>
      <point x="510" y="942" type="curve" smooth="yes"/>
      <point x="657" y="942"/>
      <point x="732" y="882"/>
      <point x="732" y="713" type="curve" smooth="yes"/>
      <point x="732" y="616" type="line"/>
      <point x="665" y="624"/>
      <point x="533" y="627"/>
      <point x="494" y="627" type="curve" smooth="yes"/>
      <point x="203" y="627"/>
      <point x="63" y="504"/>
      <point x="63" y="296" type="curve" smooth="yes"/>
      <point x="63" y="90"/>
      <point x="196" y="-12"/>
      <point x="391" y="-19" type="curve"/>
      <point x="566" y="-19"/>
      <point x="740" y="36"/>
      <point x="828" y="192" type="curve"/>
      <point x="903" y="57"/>
      <point x="1035" y="-20"/>
    </contour>
    <contour>
      <point x="459" y="122" type="curve" smooth="yes"/>
      <point x="373" y="121"/>
      <point x="264" y="163"/>
      <point x="265" y="298" type="curve" smooth="yes"/>
      <point x="265" y="420"/>
      <point x="326" y="501"/>
      <point x="526" y="501" type="curve" smooth="yes"/>
      <point x="561" y="501"/>
      <point x="669" y="497"/>
      <point x="732" y="490" type="curve"/>
      <point x="732" y="482"/>
      <point x="736" y="352"/>
      <point x="740" y="342" type="curve" smooth="yes"/>
      <point x="731" y="207"/>
      <point x="621" y="126"/>
    </contour>
    <contour>
      <point x="931" y="608" type="curve"/>
      <point x="945" y="843"/>
      <point x="1057" y="951"/>
      <point x="1223" y="951" type="curve" smooth="yes"/>
      <point x="1364" y="951"/>
      <point x="1423" y="870"/>
      <point x="1427" y="786" type="curve" smooth="yes"/>
      <point x="1432" y="679"/>
      <point x="1426" y="572"/>
    </contour>
  </outline>
</glyph>
<glyph name="thorn" format="1">
  <advance width="1244"/>
  <unicode hex="00FE"/>
  <outline>
    <contour>
      <point x="173" y="-454" type="line"/>
      <point x="386" y="-454" type="line"/>
      <point x="386" y="97" type="line"/>
      <point x="449" y="29"/>
      <point x="546" y="-20"/>
      <point x="676" y="-20" type="curve" smooth="yes"/>
      <point x="972" y="-20"/>
      <point x="1134" y="207"/>
      <point x="1134" y="544" type="curve" smooth="yes"/>
      <point x="1134" y="869"/>
      <point x="999" y="1105"/>
      <point x="707" y="1105" type="curve" smooth="yes"/>
      <point x="580" y="1105"/>
      <point x="454" y="1058"/>
      <point x="384" y="896" type="curve"/>
      <point x="391" y="1117" type="line"/>
      <point x="391" y="1560" type="line"/>
      <point x="173" y="1540" type="line"/>
    </contour>
    <contour>
      <point x="650" y="134" type="curve" smooth="yes"/>
      <point x="535" y="134"/>
      <point x="445" y="177"/>
      <point x="386" y="258" type="curve"/>
      <point x="386" y="560" type="line" smooth="yes"/>
      <point x="386" y="809"/>
      <point x="478" y="950"/>
      <point x="668" y="950" type="curve" smooth="yes"/>
      <point x="847" y="950"/>
      <point x="911" y="795"/>
      <point x="911" y="544" type="curve" smooth="yes"/>
      <point x="911" y="283"/>
      <point x="826" y="134"/>
    </contour>
  </outline>
</glyph>
<glyph name="Hbar" format="1">
  <advance width="1507"/>
  <unicode hex="0126"/>
  <outline>
    <contour>
      <point x="63" y="1282" type="line"/>
      <point x="63" y="1142" type="line"/>
      <point x="1436" y="1142" type="line"/>
      <point x="1436" y="1282" type="line"/>
    </contour>
    <component base="H"/>
  </outline>
</glyph>
<glyph name="eng" format="1">
  <advance width="1207"/>
  <unicode hex="014B"/>
  <outline>
    <contour>
      <point x="360" y="881" type="curve"/>
      <point x="341" y="1082" type="line"/>
      <point x="157" y="1082" type="line"/>
      <point x="157" y="0" type="line"/>
      <point x="376" y="0" type="line"/>
      <point x="376" y="614" type="line" smooth="yes"/>
      <point x="376" y="806"/>
      <point x="463" y="950"/>
      <point x="660" y="950" type="curve" smooth="yes"/>
      <point x="808" y="950"/>
      <point x="856" y="842"/>
      <point x="856" y="657" type="curve" smooth="yes"/>
      <point x="856" y="-13" type="line" smooth="yes"/>
      <point x="855" y="-231"/>
      <point x="819" y="-290"/>
      <point x="480" y="-290" type="curve"/>
      <point x="487" y="-449" type="line"/>
      <point x="934" y="-444"/>
      <point x="1074" y="-347"/>
      <point x="1074" y="-23" type="curve" smooth="yes"/>
      <point x="1074" y="656" type="line" smooth="yes"/>
      <point x="1074" y="943"/>
      <point x="960" y="1105"/>
      <point x="716" y="1105" type="curve" smooth="yes"/>
      <point x="542" y="1105"/>
      <point x="424" y="1030"/>
    </contour>
  </outline>
</glyph>
<glyph name="oe" format="1">
  <advance width="1896"/>
  <unicode hex="0153"/>
  <outline>
    <contour>
      <point x="1711" y="223" type="line"/>
      <point x="1637" y="174"/>
      <point x="1548" y="133"/>
      <point x="1427" y="132" type="curve" smooth="yes"/>
      <point x="1253" y="132"/>
      <point x="1090" y="226"/>
      <point x="1080" y="494" type="curve"/>
      <point x="1790" y="494" type="line"/>
      <point x="1790" y="494"/>
      <point x="1798" y="550"/>
      <point x="1798" y="594" type="curve" smooth="yes"/>
      <point x="1802" y="905"/>
      <point x="1648" y="1101"/>
      <point x="1378" y="1104" type="curve" smooth="yes"/>
      <point x="1219" y="1105"/>
      <point x="1056" y="1008"/>
      <point x="986" y="863" type="curve"/>
      <point x="924" y="1006"/>
      <point x="769" y="1104"/>
      <point x="589" y="1104" type="curve" smooth="yes"/>
      <point x="275" y="1104"/>
      <point x="98" y="884"/>
      <point x="98" y="543" type="curve" smooth="yes"/>
      <point x="98" y="206"/>
      <point x="278" y="-19"/>
      <point x="589" y="-19" type="curve" smooth="yes"/>
      <point x="768" y="-19"/>
      <point x="927" y="86"/>
      <point x="984" y="227" type="curve"/>
      <point x="1055" y="80"/>
      <point x="1234" y="-21"/>
      <point x="1412" y="-19" type="curve" smooth="yes"/>
      <point x="1566" y="-17"/>
      <point x="1693" y="31"/>
      <point x="1773" y="91" type="curve"/>
      <point x="1724" y="223" type="line"/>
    </contour>
    <contour>
      <point x="589" y="132" type="curve" smooth="yes"/>
      <point x="386" y="132"/>
      <point x="298" y="298"/>
      <point x="298" y="542" type="curve" smooth="yes"/>
      <point x="298" y="789"/>
      <point x="387" y="952"/>
      <point x="589" y="952" type="curve" smooth="yes"/>
      <point x="791" y="952"/>
      <point x="880" y="789"/>
      <point x="880" y="542" type="curve" smooth="yes"/>
      <point x="880" y="298"/>
      <point x="791" y="132"/>
    </contour>
    <contour>
      <point x="1084" y="624" type="line"/>
      <point x="1101" y="836"/>
      <point x="1226" y="957"/>
      <point x="1386" y="955" type="curve" smooth="yes"/>
      <point x="1543" y="954"/>
      <point x="1623" y="843"/>
      <point x="1628" y="624" type="curve"/>
    </contour>
  </outline>
</glyph>
<glyph name="dotaccent" format="1">
  <advance width="491"/>
  <unicode hex="02D9"/>
  <outline>
    <contour>
      <point x="245" y="1082" type="move" name="_top"/>
    </contour>
    <contour>
      <point x="246" y="1295" type="curve" smooth="yes"/>
      <point x="338" y="1295"/>
      <point x="393" y="1349"/>
      <point x="393" y="1437" type="curve" smooth="yes"/>
      <point x="393" y="1521"/>
      <point x="338" y="1574"/>
      <point x="246" y="1574" type="curve" smooth="yes"/>
      <point x="154" y="1574"/>
      <point x="99" y="1521"/>
      <point x="99" y="1437" type="curve" smooth="yes"/>
      <point x="99" y="1349"/>
      <point x="154" y="1295"/>
    </contour>
  </outline>
</glyph>
<glyph name="tilde" format="1">
  <advance width="986"/>
  <unicode hex="02DC"/>
  <outline>
    <contour>
      <point x="496" y="1069" type="move" name="_top"/>
    </contour>
    <contour>
      <point x="168" y="1286" type="curve"/>
      <point x="271" y="1286" type="line"/>
      <point x="282" y="1357"/>
      <point x="305" y="1385"/>
      <point x="340" y="1385" type="curve" smooth="yes"/>
      <point x="413" y="1385"/>
      <point x="527" y="1286"/>
      <point x="633" y="1286" type="curve" smooth="yes"/>
      <point x="739" y="1286"/>
      <point x="795" y="1378"/>
      <point x="795" y="1511" type="curve"/>
      <point x="690" y="1511" type="line"/>
      <point x="680" y="1446"/>
      <point x="659" y="1425"/>
      <point x="629" y="1425" type="curve" smooth="yes"/>
      <point x="568" y="1425"/>
      <point x="469" y="1512"/>
      <point x="344" y="1512" type="curve" smooth="yes"/>
      <point x="227" y="1512"/>
      <point x="168" y="1420"/>
    </contour>
  </outline>
</glyph>
<glyph name="hungarumlaut" format="1">
  <advance width="848"/>
  <unicode hex="02DD"/>
  <outline>
    <contour>
      <point x="358" y="1069" type="move" name="_top"/>
    </contour>
    <contour>
      <point x="150" y="1249" type="line"/>
      <point x="273" y="1249" type="line"/>
      <point x="475" y="1612" type="line"/>
      <point x="286" y="1612" type="line"/>
    </contour>
    <contour>
      <point x="448" y="1249" type="line"/>
      <point x="568" y="1249" type="line"/>
      <point x="804" y="1612" type="line"/>
      <point x="597" y="1612" type="line"/>
    </contour>
  </outline>
</glyph>
<glyph name="pi" format="1">
  <advance width="1454"/>
  <unicode hex="03C0"/>
  <outline>
    <contour>
      <point x="1139" y="-13" type="curve" smooth="yes"/>
      <point x="1220" y="-14"/>
      <point x="1289" y="11"/>
      <point x="1324" y="45" type="curve"/>
      <point x="1324" y="175" type="line"/>
      <point x="1297" y="165"/>
      <point x="1246" y="144"/>
      <point x="1207" y="144" type="curve" smooth="yes"/>
      <point x="1133" y="144"/>
      <point x="1086" y="224"/>
      <point x="1086" y="406" type="curve" smooth="yes"/>
      <point x="1086" y="531"/>
      <point x="1096" y="711"/>
      <point x="1117" y="893" type="curve"/>
      <point x="1357" y="893" type="line"/>
      <point x="1357" y="1082" type="line"/>
      <point x="454" y="1082" type="line" smooth="yes"/>
      <point x="213" y="1082"/>
      <point x="138" y="978"/>
      <point x="138" y="759" type="curve"/>
      <point x="235" y="759" type="line"/>
      <point x="247" y="836"/>
      <point x="288" y="892"/>
      <point x="368" y="893" type="curve" smooth="yes"/>
      <point x="481" y="893" type="line"/>
      <point x="416" y="395" type="line" smooth="yes"/>
      <point x="388" y="175"/>
      <point x="258" y="114"/>
      <point x="150" y="114" type="curve"/>
      <point x="150" y="4" type="line"/>
      <point x="501" y="4"/>
      <point x="573" y="107"/>
      <point x="584" y="329" type="curve" smooth="yes"/>
      <point x="610" y="893" type="line"/>
      <point x="976" y="893" type="line"/>
      <point x="943" y="666"/>
      <point x="902" y="442"/>
      <point x="902" y="283" type="curve" smooth="yes"/>
      <point x="902" y="101"/>
      <point x="962" y="-10"/>
    </contour>
  </outline>
</glyph>
<glyph name="quoteright" format="1">
  <advance width="526"/>
  <unicode hex="2019"/>
  <outline>
    <contour>
      <point x="149" y="1022" type="line"/>
      <point x="296" y="1022" type="line"/>
      <point x="408" y="1514" type="line"/>
      <point x="193" y="1514" type="line"/>
    </contour>
  </outline>
</glyph>
<glyph name="quotesinglbase" format="1">
  <advance width="473"/>
  <unicode hex="201A"/>
  <outline>
    <contour>
      <point x="100" y="-327" type="line"/>
      <point x="241" y="-327" type="line"/>
      <point x="355" y="157" type="line"/>
      <point x="150" y="157" type="line"/>
    </contour>
  </outline>
</glyph>
<glyph name="quotedblbase" format="1">
  <advance width="806"/>
  <unicode hex="201E"/>
  <outline>
    <contour>
      <point x="108" y="-327" type="line"/>
      <point x="247" y="-327" type="line"/>
      <point x="357" y="157" type="line"/>
      <point x="156" y="157" type="line"/>
    </contour>
    <contour>
      <point x="440" y="-327" type="line"/>
      <point x="576" y="-327" type="line"/>
      <point x="689" y="157" type="line"/>
      <point x="485" y="157" type="line"/>
    </contour>
  </outline>
</glyph>
<glyph name="daggerdbl" format="1">
  <advance width="1053"/>
  <unicode hex="2021"/>
  <outline>
    <contour>
      <point x="619" y="427" type="line"/>
      <point x="905" y="427" type="line"/>
      <point x="905" y="553" type="line"/>
      <point x="621" y="553" type="line"/>
      <point x="621" y="958" type="line"/>
      <point x="906" y="958" type="line"/>
      <point x="906" y="1088" type="line"/>
      <point x="618" y="1088" type="line"/>
      <point x="618" y="1470" type="line"/>
      <point x="449" y="1470" type="line"/>
      <point x="449" y="1088" type="line"/>
      <point x="164" y="1088" type="line"/>
      <point x="164" y="958" type="line"/>
      <point x="449" y="958" type="line"/>
      <point x="449" y="553" type="line"/>
      <point x="164" y="553" type="line"/>
      <point x="164" y="427" type="line"/>
      <point x="449" y="427" type="line"/>
      <point x="449" y="13" type="line"/>
      <point x="619" y="13" type="line"/>
    </contour>
  </outline>
</glyph>
<glyph name="perthousand" format="1">
  <advance width="2516"/>
  <unicode hex="2030"/>
  <outline>
    <contour>
      <point x="2046" y="111" type="curve" smooth="yes"/>
      <point x="1901" y="111"/>
      <point x="1858" y="227"/>
      <point x="1858" y="382" type="curve" smooth="yes"/>
      <point x="1858" y="533"/>
      <point x="1901" y="649"/>
      <point x="2046" y="649" type="curve" smooth="yes"/>
      <point x="2189" y="649"/>
      <point x="2231" y="539"/>
      <point x="2231" y="382" type="curve" smooth="yes"/>
      <point x="2231" y="231"/>
      <point x="2190" y="111"/>
    </contour>
    <contour>
      <point x="2044" y="-11" type="curve" smooth="yes"/>
      <point x="2275" y="-11"/>
      <point x="2377" y="160"/>
      <point x="2377" y="381" type="curve" smooth="yes"/>
      <point x="2377" y="605"/>
      <point x="2278" y="770"/>
      <point x="2044" y="770" type="curve" smooth="yes"/>
      <point x="1815" y="770"/>
      <point x="1712" y="601"/>
      <point x="1712" y="381" type="curve" smooth="yes"/>
      <point x="1712" y="160"/>
      <point x="1811" y="-11"/>
    </contour>
    <component base="percent" xOffset="21"/>
  </outline>
</glyph>
<glyph name="guilsinglright" format="1">
  <advance width="766"/>
  <unicode hex="203A"/>
  <outline>
    <contour>
      <point x="150" y="154" type="line"/>
      <point x="320" y="154" type="line"/>
      <point x="610" y="574" type="line"/>
      <point x="321" y="999" type="line"/>
      <point x="150" y="999" type="line"/>
      <point x="425" y="574" type="line"/>
    </contour>
  </outline>
</glyph>
<glyph name="uni2074" format="1">
  <advance width="698"/>
  <unicode hex="2074"/>
  <outline>
    <contour>
      <point x="396" y="613" type="line"/>
      <point x="531" y="613" type="line"/>
      <point x="530" y="814" type="line"/>
      <point x="641" y="814" type="line"/>
      <point x="650" y="925" type="line"/>
      <point x="532" y="925" type="line"/>
      <point x="532" y="1483" type="line"/>
      <point x="388" y="1483" type="line"/>
      <point x="35" y="931" type="line"/>
      <point x="35" y="814" type="line"/>
      <point x="396" y="814" type="line"/>
    </contour>
    <contour>
      <point x="180" y="925" type="line"/>
      <point x="397" y="1305" type="line"/>
      <point x="396" y="925" type="line"/>
    </contour>
  </outline>
</glyph>
<glyph name="Euro" format="1">
  <advance width="1391"/>
  <unicode hex="20AC"/>
  <outline>
    <contour>
      <point x="-60" y="528" type="line"/>
      <point x="807" y="528" type="line"/>
      <point x="812" y="650" type="line"/>
      <point x="225" y="650" type="line"/>
      <point x="225" y="814" type="line"/>
      <point x="812" y="814" type="line"/>
      <point x="818" y="935" type="line"/>
      <point x="-51" y="935" type="line"/>
      <point x="-55" y="814" type="line"/>
      <point x="115" y="814" type="line"/>
      <point x="115" y="650" type="line"/>
      <point x="-55" y="650" type="line"/>
    </contour>
    <component base="C" xOffset="-67"/>
  </outline>
</glyph>
<glyph name="uni2113" format="1">
  <advance width="1248"/>
  <unicode hex="2113"/>
  <outline>
    <contour>
      <point x="579" y="-20" type="curve" smooth="yes"/>
      <point x="811" y="-20"/>
      <point x="964" y="98"/>
      <point x="964" y="98" type="curve"/>
      <point x="939" y="238" type="line"/>
      <point x="836" y="186"/>
      <point x="745" y="153"/>
      <point x="664" y="153" type="curve" smooth="yes"/>
      <point x="581" y="153"/>
      <point x="541" y="195"/>
      <point x="541" y="283" type="curve" smooth="yes"/>
      <point x="541" y="320"/>
      <point x="547" y="364"/>
      <point x="561" y="417" type="curve" smooth="yes"/>
      <point x="615" y="636" type="line"/>
      <point x="907" y="865" type="line" smooth="yes"/>
      <point x="1153" y="1057"/>
      <point x="1250" y="1167"/>
      <point x="1250" y="1377" type="curve" smooth="yes"/>
      <point x="1250" y="1590"/>
      <point x="1093" y="1692"/>
      <point x="931" y="1693" type="curve" smooth="yes"/>
      <point x="788" y="1693"/>
      <point x="641" y="1620"/>
      <point x="580" y="1396" type="curve" smooth="yes"/>
      <point x="375" y="640" type="line"/>
      <point x="76" y="418" type="line"/>
      <point x="125" y="331" type="line"/>
      <point x="332" y="484" type="line"/>
      <point x="311" y="404"/>
      <point x="301" y="334"/>
      <point x="301" y="274" type="curve" smooth="yes"/>
      <point x="301" y="60"/>
      <point x="421" y="-20"/>
    </contour>
    <contour>
      <point x="656" y="814" type="line"/>
      <point x="758" y="1202" type="line" smooth="yes"/>
      <point x="807" y="1392"/>
      <point x="877" y="1529"/>
      <point x="983" y="1529" type="curve" smooth="yes"/>
      <point x="1073" y="1529"/>
      <point x="1117" y="1454"/>
      <point x="1117" y="1377" type="curve" smooth="yes"/>
      <point x="1117" y="1215"/>
      <point x="1020" y="1098"/>
      <point x="858" y="971" type="curve" smooth="yes"/>
    </contour>
  </outline>
</glyph>
<glyph name="trademark" format="1">
  <advance width="2170"/>
  <unicode hex="2122"/>
  <outline>
    <contour>
      <point x="960" y="522" type="line"/>
      <point x="1105" y="522" type="line"/>
      <point x="1113" y="1230" type="line"/>
      <point x="1403" y="626" type="line"/>
      <point x="1505" y="626" type="line"/>
      <point x="1796" y="1223" type="line"/>
      <point x="1805" y="522" type="line"/>
      <point x="1948" y="522" type="line"/>
      <point x="1931" y="1456" type="line"/>
      <point x="1769" y="1456" type="line"/>
      <point x="1455" y="812" type="line"/>
      <point x="1142" y="1456" type="line"/>
      <point x="977" y="1456" type="line"/>
    </contour>
    <contour>
      <point x="381" y="522" type="line"/>
      <point x="539" y="522" type="line"/>
      <point x="539" y="1329" type="line"/>
      <point x="840" y="1329" type="line"/>
      <point x="840" y="1456" type="line"/>
      <point x="82" y="1456" type="line"/>
      <point x="82" y="1329" type="line"/>
      <point x="381" y="1329" type="line"/>
    </contour>
  </outline>
</glyph>
<glyph name="estimated" format="1">
  <advance width="1291"/>
  <unicode hex="212E"/>
  <outline>
    <contour>
      <point x="681" y="227" type="curve" smooth="yes"/>
      <point x="887" y="227"/>
      <point x="1022" y="317"/>
      <point x="1120" y="435" type="curve"/>
      <point x="1070" y="485" type="line"/>
      <point x="972" y="381"/>
      <point x="861" y="300"/>
      <point x="681" y="300" type="curve" smooth="yes"/>
      <point x="453" y="300"/>
      <point x="345" y="490"/>
      <point x="344" y="765" type="curve"/>
      <point x="1128" y="765" type="line"/>
      <point x="1128" y="1110"/>
      <point x="982" y="1340"/>
      <point x="664" y="1340" type="curve" smooth="yes"/>
      <point x="343" y="1340"/>
      <point x="115" y="1102"/>
      <point x="115" y="785" type="curve" smooth="yes"/>
      <point x="115" y="467"/>
      <point x="301" y="227"/>
    </contour>
    <contour>
      <point x="345" y="845" type="line"/>
      <point x="361" y="1104"/>
      <point x="498" y="1280"/>
      <point x="670" y="1280" type="curve" smooth="yes"/>
      <point x="878" y="1280"/>
      <point x="1004" y="1078"/>
      <point x="1004" y="845" type="curve"/>
    </contour>
  </outline>
</glyph>
<glyph name="partialdiff" format="1">
  <advance width="1223"/>
  <unicode hex="2202"/>
  <outline>
    <contour>
      <point x="488" y="-20" type="curve" smooth="yes"/>
      <point x="840" y="-20"/>
      <point x="1075" y="385"/>
      <point x="1075" y="913" type="curve" smooth="yes"/>
      <point x="1075" y="1450"/>
      <point x="656" y="1705"/>
      <point x="245" y="1475" type="curve"/>
      <point x="288" y="1366" type="line"/>
      <point x="605" y="1523"/>
      <point x="901" y="1330"/>
      <point x="881" y="931" type="curve"/>
      <point x="138" y="919"/>
      <point x="-69" y="-20"/>
    </contour>
    <contour>
      <point x="502" y="98" type="curve" smooth="yes"/>
      <point x="267" y="98"/>
      <point x="413" y="799"/>
      <point x="875" y="828" type="curve"/>
      <point x="855" y="542"/>
      <point x="744" y="98"/>
    </contour>
  </outline>
</glyph>
<glyph name="uni2206" format="1">
  <advance width="1293"/>
  <unicode hex="2206"/>
  <outline>
    <contour>
      <point x="67" y="0" type="line"/>
      <point x="1229" y="0" type="line"/>
      <point x="1229" y="95" type="line"/>
      <point x="742" y="1552" type="line"/>
      <point x="554" y="1552" type="line"/>
      <point x="67" y="95" type="line"/>
    </contour>
    <contour>
      <point x="265" y="185" type="line"/>
      <point x="603" y="1181" type="line"/>
      <point x="636" y="1300" type="line"/>
      <point x="670" y="1181" type="line"/>
      <point x="1013" y="185" type="line"/>
    </contour>
  </outline>
</glyph>
<glyph name="summation" format="1">
  <advance width="1092"/>
  <unicode hex="2211"/>
  <outline>
    <contour>
      <point x="65" y="-215" type="line"/>
      <point x="1058" y="-215" type="line"/>
      <point x="1058" y="-30" type="line"/>
      <point x="335" y="-30" type="line"/>
      <point x="813" y="613" type="line"/>
      <point x="366" y="1279" type="line"/>
      <point x="1015" y="1279" type="line"/>
      <point x="1015" y="1456" type="line"/>
      <point x="83" y="1456" type="line"/>
      <point x="83" y="1324" type="line"/>
      <point x="569" y="613" type="line"/>
      <point x="65" y="-88" type="line"/>
    </contour>
  </outline>
</glyph>
<glyph name="radical" format="1">
  <advance width="1204"/>
  <unicode hex="221A"/>
  <outline>
    <contour>
      <point x="538" y="-164" type="line"/>
      <point x="717" y="-164" type="line"/>
      <point x="1171" y="1678" type="line"/>
      <point x="1115" y="1678"/>
      <point x="1009" y="1678"/>
      <point x="1009" y="1678" type="curve"/>
      <point x="906" y="1251"/>
      <point x="709" y="514"/>
      <point x="606" y="84" type="curve"/>
      <point x="532" y="326"/>
      <point x="419" y="629"/>
      <point x="321" y="913" type="curve"/>
      <point x="42" y="842" type="line"/>
      <point x="60" y="720" type="line"/>
      <point x="207" y="754" type="line"/>
    </contour>
  </outline>
</glyph>
<glyph name="integral" format="1">
  <advance width="923"/>
  <unicode hex="222B"/>
  <outline>
    <contour>
      <point x="327" y="-437" type="curve" smooth="yes"/>
      <point x="523" y="-437"/>
      <point x="613" y="-290"/>
      <point x="613" y="-33" type="curve" smooth="yes"/>
      <point x="613" y="1172" type="line" smooth="yes"/>
      <point x="613" y="1332"/>
      <point x="639" y="1422"/>
      <point x="754" y="1422" type="curve" smooth="yes"/>
      <point x="780" y="1422"/>
      <point x="809" y="1417"/>
      <point x="842" y="1408" type="curve"/>
      <point x="842" y="1533" type="line"/>
      <point x="790" y="1545"/>
      <point x="745" y="1551"/>
      <point x="706" y="1551" type="curve" smooth="yes"/>
      <point x="521" y="1551"/>
      <point x="446" y="1415"/>
      <point x="446" y="1163" type="curve" smooth="yes"/>
      <point x="446" y="-41" type="line" smooth="yes"/>
      <point x="446" y="-204"/>
      <point x="416" y="-293"/>
      <point x="299" y="-293" type="curve" smooth="yes"/>
      <point x="268" y="-293"/>
      <point x="235" y="-288"/>
      <point x="197" y="-279" type="curve"/>
      <point x="197" y="-420" type="line"/>
      <point x="246" y="-432"/>
      <point x="290" y="-437"/>
    </contour>
  </outline>
</glyph>
<glyph name="approxequal" format="1">
  <advance width="1182"/>
  <unicode hex="2248"/>
  <outline>
    <contour>
      <point x="827" y="414" type="curve" smooth="yes"/>
      <point x="971" y="414"/>
      <point x="1044" y="502"/>
      <point x="1091" y="639" type="curve"/>
      <point x="1017" y="723" type="line"/>
      <point x="977" y="626"/>
      <point x="902" y="564"/>
      <point x="826" y="564" type="curve" smooth="yes"/>
      <point x="768" y="564"/>
      <point x="693" y="601"/>
      <point x="604" y="642" type="curve" smooth="yes"/>
      <point x="501" y="693"/>
      <point x="441" y="718"/>
      <point x="358" y="718" type="curve" smooth="yes"/>
      <point x="215" y="718"/>
      <point x="126" y="623"/>
      <point x="84" y="494" type="curve"/>
      <point x="158" y="404" type="line"/>
      <point x="197" y="498"/>
      <point x="268" y="567"/>
      <point x="355" y="567" type="curve" smooth="yes"/>
      <point x="420" y="567"/>
      <point x="487" y="533"/>
      <point x="573" y="494" type="curve" smooth="yes"/>
      <point x="672" y="445"/>
      <point x="748" y="414"/>
    </contour>
    <contour>
      <point x="827" y="770" type="curve" smooth="yes"/>
      <point x="971" y="770"/>
      <point x="1044" y="859"/>
      <point x="1091" y="996" type="curve"/>
      <point x="1017" y="1079" type="line"/>
      <point x="977" y="983"/>
      <point x="902" y="921"/>
      <point x="826" y="921" type="curve" smooth="yes"/>
      <point x="768" y="921"/>
      <point x="693" y="958"/>
      <point x="604" y="999" type="curve" smooth="yes"/>
      <point x="501" y="1049"/>
      <point x="441" y="1075"/>
      <point x="358" y="1075" type="curve" smooth="yes"/>
      <point x="215" y="1075"/>
      <point x="126" y="980"/>
      <point x="84" y="851" type="curve"/>
      <point x="158" y="761" type="line"/>
      <point x="197" y="854"/>
      <point x="268" y="924"/>
      <point x="355" y="924" type="curve" smooth="yes"/>
      <point x="420" y="924"/>
      <point x="487" y="890"/>
      <point x="573" y="851" type="curve" smooth="yes"/>
      <point x="672" y="802"/>
      <point x="748" y="770"/>
    </contour>
  </outline>
</glyph>
<glyph name="notequal" format="1">
  <advance width="1110"/>
  <unicode hex="2260"/>
  <outline>
    <contour>
      <point x="210" y="67" type="line"/>
      <point x="331" y="46" type="line"/>
      <point x="471" y="343" type="line"/>
      <point x="1019" y="343" type="line"/>
      <point x="1010" y="481" type="line"/>
      <point x="532" y="481" type="line"/>
      <point x="678" y="767" type="line"/>
      <point x="1019" y="767" type="line"/>
      <point x="1009" y="911" type="line"/>
      <point x="739" y="911" type="line"/>
      <point x="853" y="1179" type="line"/>
      <point x="732" y="1196" type="line"/>
      <point x="596" y="911" type="line"/>
      <point x="64" y="911" type="line"/>
      <point x="73" y="768" type="line"/>
      <point x="534" y="768" type="line"/>
      <point x="392" y="482" type="line"/>
      <point x="65" y="482" type="line"/>
      <point x="73" y="343" type="line"/>
      <point x="327" y="343" type="line"/>
    </contour>
  </outline>
</glyph>
<glyph name="lessequal" format="1">
  <advance width="1192"/>
  <unicode hex="2264"/>
  <outline>
    <contour>
      <point x="1037" y="261" type="line"/>
      <point x="1037" y="423" type="line"/>
      <point x="346" y="773" type="line"/>
      <point x="1035" y="1144" type="line"/>
      <point x="1035" y="1307" type="line"/>
      <point x="143" y="820" type="line"/>
      <point x="143" y="725" type="line"/>
    </contour>
    <contour>
      <point x="124" y="4" type="line"/>
      <point x="1059" y="4" type="line"/>
      <point x="1059" y="143" type="line"/>
      <point x="124" y="144" type="line"/>
    </contour>
  </outline>
</glyph>
<glyph name="lozenge" format="1">
  <advance width="1179"/>
  <unicode hex="25CA"/>
  <outline>
    <contour>
      <point x="531" y="-47" type="line"/>
      <point x="642" y="-47" type="line"/>
      <point x="1067" y="760" type="line"/>
      <point x="650" y="1567" type="line"/>
      <point x="538" y="1567" type="line"/>
      <point x="115" y="758" type="line"/>
    </contour>
    <contour>
      <point x="587" y="140" type="curve"/>
      <point x="531" y="248"/>
      <point x="329" y="652"/>
      <point x="273" y="760" type="curve"/>
      <point x="331" y="868"/>
      <point x="538" y="1267"/>
      <point x="596" y="1375" type="curve"/>
      <point x="651" y="1267"/>
      <point x="852" y="866"/>
      <point x="908" y="759" type="curve"/>
      <point x="851" y="650"/>
      <point x="645" y="249"/>
    </contour>
  </outline>
</glyph>
